<?xml version="1.0" standalone="no"?>
<!DOCTYPE svg PUBLIC "-//W3C//DTD SVG 20010904//EN"
 "http://www.w3.org/TR/2001/REC-SVG-20010904/DTD/svg10.dtd">
<svg version="1.0" xmlns="http://www.w3.org/2000/svg"
 width="3400.000000pt" height="3400.000000pt" viewBox="0 0 3400.000000 3400.000000"
 preserveAspectRatio="xMidYMid meet">

<g transform="translate(0.000000,3400.000000) scale(0.100000,-0.100000)"
fill="#000000" stroke="none">
<path d="M16660 29560 c-1037 -104 -1934 -488 -2700 -1155 -508 -442 -933
-1016 -1206 -1627 -288 -647 -428 -1339 -411 -2043 18 -746 193 -1430 536
-2090 454 -876 1190 -1600 2076 -2043 516 -257 1011 -403 1635 -479 208 -25
774 -25 980 0 607 74 1085 212 1585 457 1356 663 2308 1914 2584 3396 88 475
103 940 45 1424 -150 1262 -797 2403 -1809 3189 -135 105 -413 291 -552 370
-130 74 -435 220 -588 281 -390 158 -866 273 -1295 315 -270 26 -649 28 -880
5z m-308 -2233 c20 -10 41 -30 47 -45 19 -51 31 -331 26 -619 -7 -373 -21
-444 -81 -429 -28 7 -218 100 -354 174 -159 85 -173 87 -565 87 -320 0 -342
-1 -380 -20 -27 -13 -47 -33 -60 -60 -19 -38 -20 -63 -23 -530 l-2 -490 22
-45 c37 -72 57 -78 308 -86 236 -8 301 0 440 53 103 39 150 32 172 -26 14 -39
12 -862 -3 -909 -26 -81 -51 -87 -167 -37 -119 50 -184 58 -429 51 -234 -6
-269 -12 -308 -56 -19 -21 -20 -36 -20 -534 0 -564 0 -562 60 -591 46 -21 706
-30 800 -10 38 8 138 53 270 120 233 118 260 124 299 72 21 -28 21 -34 18
-500 -3 -417 -5 -476 -20 -507 -31 -65 -9 -63 -872 -62 -426 0 -942 4 -1147 8
-331 6 -375 9 -401 24 -50 31 -47 64 22 227 15 34 35 97 46 140 48 187 48 194
45 2203 -3 1704 -5 1893 -20 1964 -18 84 -45 161 -75 214 -28 47 -52 136 -48
179 3 33 7 39 38 50 26 9 318 11 1180 10 1085 -2 1147 -3 1182 -20z m3027 3
c142 -20 196 -55 367 -238 177 -190 171 -172 178 -502 6 -280 20 -412 70 -645
27 -124 33 -235 16 -279 -16 -42 -57 -46 -507 -49 -399 -2 -420 -1 -458 18
-49 25 -53 45 -26 128 11 34 25 89 30 121 22 124 6 477 -24 522 -44 67 -91 74
-545 74 -419 1 -426 0 -473 -62 -44 -57 -51 -116 -44 -401 6 -245 7 -261 30
-311 14 -30 40 -65 59 -80 35 -26 1006 -509 1168 -580 236 -104 291 -137 430
-257 60 -52 97 -99 189 -244 40 -63 67 -150 75 -245 11 -116 15 -1335 5 -1425
-14 -134 -51 -193 -222 -363 -111 -109 -159 -149 -203 -170 l-59 -27 -805 -3
c-442 -1 -860 2 -928 7 -177 13 -212 31 -398 217 -113 111 -151 156 -172 201
l-27 58 -6 475 c-4 339 -9 486 -18 515 -7 22 -24 73 -38 112 -22 63 -24 77
-13 102 22 55 34 56 510 56 395 0 438 -2 462 -17 44 -29 44 -66 2 -184 l-37
-105 9 -249 c9 -242 10 -249 33 -274 13 -14 38 -30 55 -35 48 -15 632 -24 776
-12 140 12 162 22 194 86 18 36 20 65 20 420 l1 380 -23 38 c-32 50 -69 70
-337 180 -126 52 -252 105 -280 117 -84 38 -481 199 -653 266 -200 78 -298
128 -379 194 -85 70 -132 136 -213 301 l-70 142 2 772 3 771 37 75 c33 65 57
92 190 219 210 199 194 193 483 200 370 8 1483 1 1564 -10z"/>
<path d="M15347 27157 c-11 -29 -9 -43 4 -30 6 6 9 19 7 29 -3 18 -4 18 -11 1z"/>
<path d="M15577 27009 c-9 -39 -15 -75 -11 -80 11 -19 44 -9 50 16 7 30 -4
135 -15 135 -4 0 -15 -32 -24 -71z"/>
<path d="M14500 27018 c0 -21 5 -38 10 -38 13 0 13 40 0 60 -7 11 -10 5 -10
-22z"/>
<path d="M15246 27034 c-25 -25 -19 -51 19 -80 20 -15 37 -25 39 -23 2 2 16
24 31 48 26 42 27 45 9 58 -24 18 -79 16 -98 -3z"/>
<path d="M15455 27039 c-4 -6 -5 -13 -2 -16 7 -7 27 6 27 18 0 12 -17 12 -25
-2z"/>
<path d="M15940 27030 c0 -5 5 -10 10 -10 6 0 10 5 10 10 0 6 -4 10 -10 10 -5
0 -10 -4 -10 -10z"/>
<path d="M14792 26988 c-17 -17 -15 -25 8 -31 11 -3 25 -19 31 -36 9 -25 15
-29 37 -26 15 2 56 7 92 10 36 4 76 12 89 19 23 13 23 14 5 24 -10 5 -59 15
-107 21 -48 7 -99 16 -113 21 -31 12 -28 12 -42 -2z"/>
<path d="M15983 26935 l-18 -25 -60 19 c-58 18 -60 18 -84 0 -14 -12 -40 -19
-65 -19 -22 0 -48 -5 -56 -10 -28 -19 17 -40 86 -40 52 0 68 -4 90 -24 l28
-23 38 38 c21 20 38 45 38 54 0 9 4 14 9 11 11 -7 71 13 71 24 0 9 -25 20 -45
20 -7 0 -22 -11 -32 -25z"/>
<path d="M14644 26936 c-3 -9 -3 -28 0 -42 6 -21 9 -24 21 -14 19 16 19 44 0
60 -12 10 -16 9 -21 -4z"/>
<path d="M14755 26940 c-3 -5 -1 -10 4 -10 6 0 11 5 11 10 0 6 -2 10 -4 10 -3
0 -8 -4 -11 -10z"/>
<path d="M15419 26937 c-24 -18 -39 -52 -39 -86 0 -30 2 -31 43 -32 23 -1 52
-3 65 -4 33 -3 36 11 8 47 -13 18 -29 45 -35 61 -12 30 -18 32 -42 14z"/>
<path d="M14364 26885 c11 -8 32 -15 46 -15 14 0 35 7 46 15 17 13 13 14 -46
14 -59 0 -63 -1 -46 -14z"/>
<path d="M15140 26840 c0 -5 7 -10 16 -10 8 0 12 5 9 10 -3 6 -10 10 -16 10
-5 0 -9 -4 -9 -10z"/>
<path d="M15255 26839 c-11 -16 -1 -20 33 -13 18 4 29 10 26 15 -7 13 -51 11
-59 -2z"/>
<path d="M16137 26843 c-12 -12 -7 -22 8 -17 8 4 15 10 15 15 0 11 -14 12 -23
2z"/>
<path d="M15045 26800 c-3 -5 -1 -10 4 -10 6 0 11 5 11 10 0 6 -2 10 -4 10 -3
0 -8 -4 -11 -10z"/>
<path d="M15540 26799 c0 -27 45 -70 83 -78 50 -12 55 1 15 44 -35 37 -98 59
-98 34z"/>
<path d="M16057 26803 c-22 -6 -17 -27 7 -31 18 -4 46 14 46 29 0 9 -22 10
-53 2z"/>
<path d="M14597 26783 c-10 -18 -18 -73 -10 -73 4 0 25 5 47 11 l38 11 -28 29
c-28 30 -39 35 -47 22z"/>
<path d="M14945 26780 c-3 -5 3 -10 15 -10 12 0 18 5 15 10 -3 6 -10 10 -15
10 -5 0 -12 -4 -15 -10z"/>
<path d="M14743 26743 c-3 -10 -12 -33 -19 -52 -20 -48 -18 -71 6 -71 30 0 69
28 86 62 14 27 14 32 -1 54 -19 29 -63 33 -72 7z"/>
<path d="M14520 26696 c-22 -12 -120 -196 -120 -225 0 -46 46 -53 91 -13 29
26 30 29 18 56 -12 27 -11 30 21 60 19 17 45 38 58 46 20 14 21 18 10 47 -13
35 -45 47 -78 29z"/>
<path d="M15050 26690 c0 -5 5 -10 10 -10 6 0 10 5 10 10 0 6 -4 10 -10 10 -5
0 -10 -4 -10 -10z"/>
<path d="M14419 26341 l-23 -18 32 -32 c25 -25 37 -31 54 -25 28 8 38 22 38
51 0 42 -61 56 -101 24z"/>
<path d="M14295 26301 c-3 -5 -1 -12 5 -16 12 -7 30 2 30 16 0 12 -27 12 -35
0z"/>
<path d="M14600 26229 c0 -13 11 -41 25 -62 25 -36 45 -48 45 -26 0 19 -31 77
-51 95 -18 16 -19 16 -19 -7z"/>
<path d="M14450 26040 c0 -5 5 -10 10 -10 6 0 10 5 10 10 0 6 -4 10 -10 10 -5
0 -10 -4 -10 -10z"/>
<path d="M14371 25952 l-22 -17 30 -29 31 -30 30 29 c36 35 37 39 5 53 -35 16
-49 15 -74 -6z"/>
<path d="M14550 25944 c0 -8 5 -12 10 -9 6 4 8 11 5 16 -9 14 -15 11 -15 -7z"/>
<path d="M14720 25940 c-24 -8 -23 -8 8 -9 17 -1 32 4 32 9 0 11 -5 11 -40 0z"/>
<path d="M14355 25650 c-3 -5 -1 -10 4 -10 6 0 11 5 11 10 0 6 -2 10 -4 10 -3
0 -8 -4 -11 -10z"/>
<path d="M14535 25622 c-19 -46 -21 -48 -49 -27 -28 21 -32 19 -50 -24 -15
-38 -16 -39 -45 -28 -38 14 -48 4 -28 -27 20 -29 53 -42 71 -27 8 7 31 9 58 5
l46 -6 21 56 c25 67 25 76 7 101 -13 19 -15 17 -31 -23z"/>
<path d="M14650 25485 c0 -8 2 -15 4 -15 2 0 6 7 10 15 3 8 1 15 -4 15 -6 0
-10 -7 -10 -15z"/>
<path d="M14600 25305 c0 -2 9 -9 19 -14 14 -8 20 -7 25 4 4 11 -2 15 -19 15
-14 0 -25 -2 -25 -5z"/>
<path d="M14750 25295 c0 -15 26 -20 54 -9 28 11 17 24 -19 24 -24 0 -35 -5
-35 -15z"/>
<path d="M14402 25206 c3 -31 7 -59 11 -62 3 -4 22 7 41 23 l34 31 -45 32 -46
31 5 -55z"/>
<path d="M14890 25200 c0 -5 5 -10 11 -10 5 0 7 5 4 10 -3 6 -8 10 -11 10 -2
0 -4 -4 -4 -10z"/>
<path d="M14752 25148 c7 -19 43 -21 58 -3 11 13 8 15 -25 15 -25 0 -35 -4
-33 -12z"/>
<path d="M15100 24950 c0 -5 5 -10 11 -10 5 0 7 5 4 10 -3 6 -8 10 -11 10 -2
0 -4 -4 -4 -10z"/>
<path d="M14445 24929 c-9 -27 8 -45 24 -26 12 15 5 47 -9 47 -5 0 -12 -9 -15
-21z"/>
<path d="M14976 24898 c-27 -50 -27 -52 -10 -66 22 -16 83 -9 96 10 4 7 8 29
8 49 0 26 -5 38 -17 42 -10 2 -25 7 -33 11 -11 4 -23 -9 -44 -46z"/>
<path d="M15290 24920 c0 -16 5 -30 10 -30 6 0 10 14 10 30 0 17 -4 30 -10 30
-5 0 -10 -13 -10 -30z"/>
<path d="M14691 24843 c1 -10 4 -29 8 -43 l8 -25 13 27 c7 15 10 34 7 42 -9
22 -37 20 -36 -1z"/>
<path d="M14800 24850 c0 -5 5 -10 10 -10 6 0 10 5 10 10 0 6 -4 10 -10 10 -5
0 -10 -4 -10 -10z"/>
<path d="M15430 24827 c0 -40 0 -40 24 -31 22 8 20 27 -4 49 -20 18 -20 17
-20 -18z"/>
<path d="M14528 24784 c-16 -8 -28 -19 -28 -24 0 -14 37 -31 54 -24 18 7 30
39 21 54 -8 13 -14 12 -47 -6z"/>
<path d="M15389 24754 c-9 -11 -10 -20 -3 -32 20 -30 34 -25 34 12 0 39 -10
45 -31 20z"/>
<path d="M15290 24729 c0 -38 24 -35 28 4 2 19 -1 27 -12 27 -11 0 -16 -10
-16 -31z"/>
<path d="M14577 24679 c-29 -22 -28 -39 4 -39 12 0 23 10 29 26 16 42 10 45
-33 13z"/>
<path d="M15240 24600 c0 -5 7 -10 15 -10 8 0 15 5 15 10 0 6 -7 10 -15 10 -8
0 -15 -4 -15 -10z"/>
<path d="M14350 24550 c0 -12 45 -24 60 -15 5 3 8 11 5 16 -8 12 -65 12 -65
-1z"/>
<path d="M14590 24550 c0 -5 7 -10 15 -10 8 0 15 5 15 10 0 6 -7 10 -15 10 -8
0 -15 -4 -15 -10z"/>
<path d="M14702 24485 c0 -16 2 -22 5 -12 2 9 2 23 0 30 -3 6 -5 -1 -5 -18z"/>
<path d="M14400 24350 c0 -5 7 -10 16 -10 8 0 12 5 9 10 -3 6 -10 10 -16 10
-5 0 -9 -4 -9 -10z"/>
<path d="M14502 24298 c2 -6 10 -14 16 -16 7 -2 10 2 6 12 -7 18 -28 22 -22 4z"/>
<path d="M14690 24254 c0 -67 21 -70 32 -4 8 47 4 60 -18 60 -10 0 -14 -14
-14 -56z"/>
<path d="M14845 24300 c4 -6 11 -8 16 -5 14 9 11 15 -7 15 -8 0 -12 -5 -9 -10z"/>
<path d="M14557 24273 c-28 -7 -16 -38 16 -41 36 -4 62 15 46 34 -11 14 -28
16 -62 7z"/>
<path d="M14505 24170 c-4 -6 -3 -16 3 -22 6 -6 12 -6 17 2 4 6 3 16 -3 22 -6
6 -12 6 -17 -2z"/>
<path d="M14664 23865 c-17 -13 -13 -14 46 -14 59 0 63 1 46 14 -11 8 -32 15
-46 15 -14 0 -35 -7 -46 -15z"/>
<path d="M14550 23860 c0 -5 5 -10 10 -10 6 0 10 5 10 10 0 6 -4 10 -10 10 -5
0 -10 -4 -10 -10z"/>
<path d="M14545 23410 c-3 -5 -1 -10 4 -10 6 0 11 5 11 10 0 6 -2 10 -4 10 -3
0 -8 -4 -11 -10z"/>
<path d="M14450 23359 c0 -5 5 -7 10 -4 6 3 10 8 10 11 0 2 -4 4 -10 4 -5 0
-10 -5 -10 -11z"/>
<path d="M14500 23210 c0 -5 5 -10 10 -10 6 0 10 5 10 10 0 6 -4 10 -10 10 -5
0 -10 -4 -10 -10z"/>
<path d="M14742 23185 c-1 -16 3 -25 13 -25 9 0 15 10 15 25 0 14 -6 25 -13
25 -7 0 -14 -11 -15 -25z"/>
<path d="M15438 22930 c-3 -20 0 -30 9 -30 8 0 13 12 13 30 0 17 -4 30 -9 30
-5 0 -11 -13 -13 -30z"/>
<path d="M14446 22918 c-14 -44 -15 -68 -4 -78 7 -5 26 -20 42 -32 34 -25 56
-74 56 -123 0 -41 19 -53 56 -36 l25 11 -20 26 c-12 15 -21 37 -21 50 0 40
-18 73 -54 96 -39 25 -44 39 -21 58 12 10 13 16 4 26 -14 17 -58 18 -63 2z"/>
<path d="M15566 22879 c24 -26 30 -28 33 -13 3 19 -23 44 -48 44 -10 0 -5 -10
15 -31z"/>
<path d="M15345 22861 c-3 -5 -1 -12 5 -16 5 -3 10 1 10 9 0 18 -6 21 -15 7z"/>
<path d="M14373 22829 c-26 -10 -31 -50 -9 -68 11 -9 18 -6 35 18 12 16 21 34
21 39 0 15 -22 20 -47 11z"/>
<path d="M14874 22744 c-15 -21 -15 -27 -4 -34 28 -17 70 21 50 45 -17 21 -27
19 -46 -11z"/>
<path d="M15145 22720 c-3 -5 -1 -10 4 -10 6 0 11 5 11 10 0 6 -2 10 -4 10 -3
0 -8 -4 -11 -10z"/>
<path d="M15246 22621 c-4 -5 -2 -12 3 -15 5 -4 12 -2 15 3 4 5 2 12 -3 15 -5
4 -12 2 -15 -3z"/>
<path d="M18420 27190 c0 -5 7 -10 16 -10 8 0 12 5 9 10 -3 6 -10 10 -16 10
-5 0 -9 -4 -9 -10z"/>
<path d="M19014 27135 c-9 -23 14 -45 26 -25 5 8 8 19 7 24 -6 17 -27 18 -33
1z"/>
<path d="M18117 27133 c-11 -10 -8 -86 3 -103 9 -13 12 -12 25 4 30 40 4 132
-28 99z"/>
<path d="M18720 27118 c0 -7 5 -20 10 -28 8 -12 10 -9 10 13 0 15 -4 27 -10
27 -5 0 -10 -6 -10 -12z"/>
<path d="M18425 27090 c-3 -5 -1 -10 4 -10 6 0 11 5 11 10 0 6 -2 10 -4 10 -3
0 -8 -4 -11 -10z"/>
<path d="M19170 27091 c0 -10 24 -21 46 -21 8 0 14 7 14 15 0 10 -10 15 -30
15 -16 0 -30 -4 -30 -9z"/>
<path d="M17783 27083 c-8 -3 -13 -21 -13 -44 0 -21 -9 -53 -19 -71 -24 -38
-20 -48 19 -48 36 0 41 16 32 101 -5 46 -11 65 -19 62z"/>
<path d="M18217 27046 c-8 -8 -24 -40 -37 -70 -12 -31 -25 -56 -29 -56 -3 1
-17 7 -31 15 -31 18 -84 19 -110 3 -15 -10 -26 -10 -53 0 -42 15 -70 15 -85 0
-21 -21 -13 -46 24 -76 33 -27 38 -29 76 -19 30 7 54 7 86 -2 43 -11 46 -11
74 15 15 15 28 34 28 41 0 9 18 13 65 13 36 0 65 -3 65 -7 -1 -13 -34 -49 -62
-66 -16 -10 -28 -23 -28 -31 0 -29 -41 -51 -97 -51 -47 0 -58 -4 -71 -23 -14
-22 -14 -22 32 -22 33 0 61 -8 92 -26 42 -25 46 -25 69 -10 30 20 32 33 5 41
-24 7 -27 25 -5 25 9 0 18 -7 21 -15 14 -37 64 -1 64 46 0 23 6 32 28 39 48
17 57 26 62 61 5 33 7 34 60 41 85 10 124 67 81 119 l-18 23 -17 -32 c-15 -29
-21 -32 -54 -30 -37 3 -37 3 -40 -39 l-3 -43 -56 0 c-48 0 -54 2 -48 18 3 9
12 37 18 60 10 39 10 45 -8 58 -24 18 -80 18 -98 0z"/>
<path d="M19425 27039 c-10 -15 -2 -19 24 -12 17 4 19 8 9 14 -18 12 -26 11
-33 -2z"/>
<path d="M19064 27015 c-49 -26 -104 -76 -104 -95 0 -6 29 -10 64 -10 57 0 65
-3 80 -25 9 -13 30 -32 46 -40 l30 -15 29 60 c18 37 25 60 18 61 -24 3 -52 6
-64 7 -8 1 -13 17 -13 42 0 49 -15 52 -86 15z m84 -72 c-2 -10 -13 -19 -26
-21 -24 -4 -29 7 -10 26 18 18 40 15 36 -5z"/>
<path d="M19320 27030 c0 -5 4 -10 9 -10 6 0 13 5 16 10 3 6 -1 10 -9 10 -9 0
-16 -4 -16 -10z"/>
<path d="M18804 26990 c-12 -13 -40 -24 -65 -27 -66 -8 -109 -53 -50 -51 61 2
68 -25 11 -40 -36 -9 -40 -8 -40 9 0 10 -6 19 -14 19 -22 0 -30 -19 -12 -26
20 -8 21 -38 1 -54 -8 -7 -29 -10 -47 -7 -18 2 -44 0 -58 -5 -24 -9 -24 -10
-6 -23 10 -8 48 -24 83 -36 l64 -21 89 28 90 27 -21 37 c-21 37 -23 70 -4 77
6 2 43 -24 83 -57 40 -34 77 -58 82 -55 28 18 -14 119 -54 129 -15 4 -33 22
-48 49 -27 48 -54 57 -84 27z"/>
<path d="M17601 26907 c-47 -83 -40 -127 19 -127 27 0 90 31 90 44 -1 6 -18
39 -39 74 l-39 63 -31 -54z"/>
<path d="M19451 26900 c-40 -6 -56 -27 -48 -61 5 -21 16 -27 68 -38 70 -14 79
-9 79 45 0 47 -32 65 -99 54z"/>
<path d="M19320 26890 c0 -5 7 -10 16 -10 8 0 12 5 9 10 -3 6 -10 10 -16 10
-5 0 -9 -4 -9 -10z"/>
<path d="M17720 26814 c0 -12 24 -51 57 -91 42 -53 96 -72 139 -52 31 15 40
35 25 59 -8 12 -13 12 -36 0 -25 -13 -28 -12 -64 28 -36 39 -75 62 -107 62 -8
0 -14 -3 -14 -6z"/>
<path d="M19134 26742 c-6 -4 -23 -28 -38 -54 l-28 -47 28 -51 c19 -35 33 -50
48 -50 12 0 38 -3 58 -6 30 -5 39 -3 44 11 5 11 1 21 -9 27 -10 5 -17 17 -17
26 1 13 6 11 23 -10 18 -22 28 -26 52 -22 17 3 36 12 43 22 11 14 9 19 -13 35
-14 10 -25 26 -25 36 0 35 -20 41 -63 20 -32 -17 -44 -19 -64 -10 -24 11 -24
13 -9 36 9 13 16 29 16 35 0 12 -30 13 -46 2z"/>
<path d="M17445 26681 c5 -24 2 -37 -10 -51 -18 -20 -17 -51 1 -57 14 -5 114
95 114 113 0 8 -10 14 -24 14 -13 0 -38 3 -56 6 -32 7 -32 7 -25 -25z"/>
<path d="M19412 26694 c-29 -20 -58 -74 -40 -75 31 -3 55 4 80 22 15 10 32 19
38 19 16 0 12 15 -8 33 -23 21 -41 21 -70 1z"/>
<path d="M18370 26690 c0 -5 13 -10 29 -10 17 0 33 5 36 10 4 6 -8 10 -29 10
-20 0 -36 -4 -36 -10z"/>
<path d="M18920 26690 c0 -5 4 -10 9 -10 6 0 13 5 16 10 3 6 -1 10 -9 10 -9 0
-16 -4 -16 -10z"/>
<path d="M17731 26644 c0 -11 3 -14 6 -6 3 7 2 16 -1 19 -3 4 -6 -2 -5 -13z"/>
<path d="M17380 26641 c0 -5 7 -12 16 -15 14 -5 15 -4 4 9 -14 17 -20 19 -20
6z"/>
<path d="M19515 26640 c3 -5 11 -10 16 -10 6 0 7 5 4 10 -3 6 -11 10 -16 10
-6 0 -7 -4 -4 -10z"/>
<path d="M17597 26614 c-21 -14 -36 -28 -34 -31 10 -10 82 -22 99 -17 16 5 16
7 1 40 -9 18 -19 34 -23 34 -3 0 -23 -12 -43 -26z"/>
<path d="M17903 26603 c-13 -2 -23 -9 -23 -14 0 -10 57 -12 115 -2 31 5 35 8
20 14 -21 8 -75 9 -112 2z"/>
<path d="M19523 26553 c-22 -8 -14 -21 17 -25 17 -3 31 0 34 8 8 22 -18 31
-51 17z"/>
<path d="M17730 26541 c0 -13 77 -61 100 -61 27 0 25 21 -3 48 -23 22 -97 32
-97 13z"/>
<path d="M17677 26494 c-10 -10 36 -64 55 -64 27 0 22 35 -7 54 -26 17 -38 20
-48 10z"/>
<path d="M19620 26490 c0 -5 5 -10 11 -10 5 0 7 5 4 10 -3 6 -8 10 -11 10 -2
0 -4 -4 -4 -10z"/>
<path d="M19650 26426 c0 -52 24 -70 42 -31 13 29 6 50 -21 65 -20 10 -21 8
-21 -34z"/>
<path d="M17467 26418 c-7 -50 -2 -59 18 -32 18 24 19 48 1 63 -11 9 -14 3
-19 -31z"/>
<path d="M19405 26420 c-8 -46 -4 -55 20 -47 19 8 19 46 1 70 -13 17 -15 14
-21 -23z"/>
<path d="M19515 26399 c-10 -15 3 -25 16 -12 7 7 7 13 1 17 -6 3 -14 1 -17 -5z"/>
<path d="M19298 26393 c6 -2 18 -2 25 0 6 3 1 5 -13 5 -14 0 -19 -2 -12 -5z"/>
<path d="M17433 26353 c-21 -8 -15 -51 9 -67 54 -38 85 -2 39 45 -16 16 -31
29 -33 28 -2 0 -9 -3 -15 -6z"/>
<path d="M17526 26345 c-8 -22 -3 -28 19 -23 14 3 14 5 2 22 -13 18 -14 18
-21 1z"/>
<path d="M19367 26354 c-9 -9 4 -35 14 -28 5 3 9 12 9 20 0 14 -12 19 -23 8z"/>
<path d="M17815 26340 c-3 -5 1 -10 9 -10 8 0 18 5 21 10 3 6 -1 10 -9 10 -8
0 -18 -4 -21 -10z"/>
<path d="M17571 26288 c21 -41 42 -58 70 -58 42 0 46 20 10 52 -20 18 -42 28
-62 28 -28 0 -29 -2 -18 -22z"/>
<path d="M19616 26241 c-4 -5 8 -21 25 -36 36 -30 55 -22 45 19 -5 21 -13 26
-36 26 -16 0 -31 -4 -34 -9z"/>
<path d="M19367 26204 c-11 -11 -8 -62 4 -69 12 -8 15 -6 23 21 7 21 -15 60
-27 48z"/>
<path d="M17535 26190 c3 -5 8 -10 11 -10 2 0 4 5 4 10 0 6 -5 10 -11 10 -5 0
-7 -4 -4 -10z"/>
<path d="M17430 26143 c0 -3 7 -14 16 -24 14 -16 14 -20 0 -48 -15 -28 -15
-33 1 -66 l17 -35 73 0 73 0 0 -32 c0 -47 -10 -57 -75 -76 -32 -10 -60 -23
-62 -29 -2 -6 16 -23 41 -38 25 -15 46 -30 46 -34 0 -11 -31 -35 -62 -49 -43
-18 -38 -55 14 -93 l43 -30 7 26 c9 36 27 55 49 55 12 0 24 11 30 26 13 35
-11 74 -47 74 -21 0 -23 3 -15 19 6 10 26 37 46 60 43 53 44 79 3 118 -18 17
-43 45 -56 62 -13 17 -43 43 -67 57 -24 14 -47 34 -50 45 -6 18 -25 27 -25 12z"/>
<path d="M19579 26098 c-14 -10 -5 -17 53 -46 52 -26 74 -32 89 -26 19 9 18
12 -17 47 -30 29 -45 37 -73 36 -20 0 -43 -5 -52 -11z"/>
<path d="M17614 26085 c10 -8 23 -12 28 -9 14 9 -2 24 -25 24 -21 -1 -21 -1
-3 -15z"/>
<path d="M17714 25986 c-3 -8 -4 -31 -2 -52 2 -31 7 -39 23 -39 15 0 21 8 23
32 5 51 -29 97 -44 59z"/>
<path d="M17418 25953 c-16 -19 -38 -58 -38 -67 0 -3 6 -6 14 -6 17 0 66 56
66 76 0 19 -24 18 -42 -3z"/>
<path d="M19420 25940 c0 -5 5 -10 10 -10 6 0 10 5 10 10 0 6 -4 10 -10 10 -5
0 -10 -4 -10 -10z"/>
<path d="M17842 25680 c-28 -37 -28 -50 -1 -43 24 7 53 48 44 63 -10 16 -20
12 -43 -20z"/>
<path d="M17722 25628 c-7 -7 -12 -20 -12 -31 0 -30 34 -16 38 16 4 29 -6 35
-26 15z"/>
<path d="M17560 25551 c0 -31 0 -31 -53 -31 -30 0 -62 -6 -73 -14 -18 -14 -18
-15 9 -25 16 -6 48 -11 73 -11 l44 0 -20 -40 c-11 -21 -20 -50 -20 -64 l0 -24
63 13 c34 8 83 17 109 20 34 4 51 12 59 27 12 22 4 84 -12 93 -5 4 -28 -9 -49
-29 -47 -42 -52 -43 -96 -15 -45 27 -48 69 -6 69 16 0 36 6 46 13 22 16 7 31
-41 42 -32 6 -33 5 -33 -24z"/>
<path d="M17933 25453 c-24 -9 -13 -19 19 -18 17 0 33 6 36 13 4 12 -31 15
-55 5z"/>
<path d="M18070 25400 c0 -19 51 -23 68 -6 15 15 13 16 -26 16 -23 0 -42 -4
-42 -10z"/>
<path d="M17625 25311 c-3 -5 -1 -12 5 -16 5 -3 10 1 10 9 0 18 -6 21 -15 7z"/>
<path d="M17716 25301 c-3 -4 6 -13 19 -19 23 -11 24 -10 13 8 -14 22 -24 25
-32 11z"/>
<path d="M17828 25298 c9 -9 15 -9 24 0 9 9 7 12 -12 12 -19 0 -21 -3 -12 -12z"/>
<path d="M17893 25260 c-12 -5 -25 -19 -28 -32 -4 -13 -18 -36 -31 -51 -30
-36 -31 -73 -2 -88 13 -7 30 -22 40 -34 10 -12 31 -25 48 -28 44 -9 57 -48 30
-92 -25 -40 -25 -51 -1 -58 30 -7 59 19 63 56 l3 32 56 -3 c51 -3 58 -1 77 23
12 15 62 44 122 70 110 48 170 82 170 95 0 5 -21 12 -46 16 -33 5 -55 2 -84
-11 -35 -16 -40 -16 -61 -1 -49 34 -93 7 -64 -38 16 -25 16 -25 -10 -32 -17
-4 -40 -1 -62 10 -20 9 -37 15 -40 13 -2 -2 4 -18 14 -35 10 -17 15 -34 11
-38 -14 -14 -82 8 -110 36 -44 44 -36 85 25 124 34 23 35 53 1 66 -31 12 -91
12 -121 0z m7 -155 c0 -16 -27 -32 -37 -21 -7 7 16 36 28 36 5 0 9 -7 9 -15z"/>
<path d="M17760 25242 c0 -12 -14 -23 -42 -33 -25 -9 -49 -27 -58 -42 -13 -23
-12 -30 3 -61 9 -20 20 -36 24 -36 5 0 23 34 42 75 19 42 42 82 53 89 17 12
17 14 3 20 -24 9 -25 8 -25 -12z"/>
<path d="M18620 25100 c0 -5 5 -10 11 -10 5 0 7 5 4 10 -3 6 -8 10 -11 10 -2
0 -4 -4 -4 -10z"/>
<path d="M18320 25001 c0 -5 11 -11 25 -13 17 -4 25 -1 25 8 0 8 -11 14 -25
14 -14 0 -25 -4 -25 -9z"/>
<path d="M18566 24987 c-9 -33 -8 -37 9 -37 9 0 15 9 15 24 0 33 -16 42 -24
13z"/>
<path d="M18400 24933 c-11 -14 -20 -29 -20 -33 0 -21 107 -27 134 -7 15 11
11 15 -38 39 l-55 27 -21 -26z"/>
<path d="M18725 24940 c-3 -5 1 -10 10 -10 9 0 13 5 10 10 -3 6 -8 10 -10 10
-2 0 -7 -4 -10 -10z"/>
<path d="M18731 24886 c-39 -63 -13 -79 38 -23 28 29 30 33 14 45 -24 18 -29
16 -52 -22z"/>
<path d="M18147 24882 c-34 -36 -34 -52 1 -52 40 0 54 13 50 45 -4 39 -19 41
-51 7z"/>
<path d="M18670 24805 c-7 -9 -10 -18 -7 -22 8 -7 37 15 37 28 0 14 -16 11
-30 -6z"/>
<path d="M18430 24800 c0 -5 5 -10 11 -10 5 0 7 5 4 10 -3 6 -8 10 -11 10 -2
0 -4 -4 -4 -10z"/>
<path d="M18830 24800 c0 -5 5 -10 11 -10 5 0 7 5 4 10 -3 6 -8 10 -11 10 -2
0 -4 -4 -4 -10z"/>
<path d="M18600 24764 c0 -6 14 -17 30 -24 17 -7 30 -18 30 -26 0 -14 57 -84
69 -84 6 0 61 74 61 83 0 3 -29 8 -65 12 -53 5 -65 10 -65 25 0 12 -9 19 -30
22 -19 3 -30 0 -30 -8z"/>
<path d="M19067 24763 c-11 -10 -8 -73 3 -73 18 0 31 39 20 60 -12 22 -14 23
-23 13z"/>
<path d="M19171 24756 c-9 -11 -5 -15 21 -19 41 -6 49 0 24 19 -25 17 -31 18
-45 0z"/>
<path d="M18872 24718 c-8 -8 -9 -15 -1 -25 16 -18 58 -16 66 3 11 28 -41 46
-65 22z"/>
<path d="M19213 24595 c-3 -9 2 -22 12 -29 10 -7 25 -28 34 -47 9 -18 20 -34
26 -34 5 0 19 18 32 40 l22 40 -51 23 c-60 26 -67 27 -75 7z"/>
<path d="M19365 24600 c-4 -7 -2 -16 6 -21 18 -11 23 -4 11 17 -7 12 -11 13
-17 4z"/>
<path d="M18964 24556 c-4 -10 -2 -22 4 -28 8 -8 13 -7 18 6 4 10 2 22 -4 28
-8 8 -13 7 -18 -6z"/>
<path d="M19171 24561 c-7 -5 -11 -14 -7 -19 9 -15 36 -4 36 14 0 16 -9 18
-29 5z"/>
<path d="M19406 24555 c4 -8 11 -15 16 -15 6 0 5 6 -2 15 -7 8 -14 15 -16 15
-2 0 -1 -7 2 -15z"/>
<path d="M18843 24539 c-42 -27 -43 -49 -3 -49 31 0 68 39 55 60 -9 14 -15 13
-52 -11z"/>
<path d="M19483 24480 c-18 -21 -33 -41 -33 -44 0 -12 87 -5 106 8 18 15 18
16 -11 45 l-30 30 -32 -39z"/>
<path d="M18720 24500 c0 -5 7 -10 16 -10 8 0 12 5 9 10 -3 6 -10 10 -16 10
-5 0 -9 -4 -9 -10z"/>
<path d="M19070 24499 c0 -5 5 -7 10 -4 6 3 10 8 10 11 0 2 -4 4 -10 4 -5 0
-10 -5 -10 -11z"/>
<path d="M19612 24499 c2 -6 8 -10 13 -10 5 0 11 4 13 10 2 6 -4 11 -13 11 -9
0 -15 -5 -13 -11z"/>
<path d="M19282 24420 c-19 -8 -21 -13 -12 -30 6 -11 21 -27 34 -35 21 -14 26
-13 66 8 23 12 50 33 58 45 l14 22 -68 -1 c-38 0 -79 -4 -92 -9z"/>
<path d="M19120 24410 c0 -5 5 -10 10 -10 6 0 10 5 10 10 0 6 -4 10 -10 10 -5
0 -10 -4 -10 -10z"/>
<path d="M19362 24249 c2 -6 8 -10 13 -10 5 0 11 4 13 10 2 6 -4 11 -13 11 -9
0 -15 -5 -13 -11z"/>
<path d="M19250 24210 c0 -5 7 -10 15 -10 8 0 15 5 15 10 0 6 -7 10 -15 10 -8
0 -15 -4 -15 -10z"/>
<path d="M19438 24118 c-32 -11 -34 -19 -12 -54 13 -18 15 -36 10 -74 -4 -31
-3 -50 3 -50 25 0 62 26 67 47 7 26 16 28 46 12 32 -17 68 -2 84 36 18 45 18
51 -8 75 -18 16 -34 20 -92 19 -39 0 -83 -5 -98 -11z"/>
<path d="M19320 24050 c0 -5 5 -10 10 -10 6 0 10 5 10 10 0 6 -4 10 -10 10 -5
0 -10 -4 -10 -10z"/>
<path d="M19352 23919 c2 -7 10 -15 17 -17 8 -3 12 1 9 9 -2 7 -10 15 -17 17
-8 3 -12 -1 -9 -9z"/>
<path d="M19431 23819 c-20 -8 -21 -12 -10 -25 18 -22 64 -14 64 11 0 23 -20
28 -54 14z"/>
<path d="M19515 23760 c-3 -5 -1 -10 4 -10 6 0 11 5 11 10 0 6 -2 10 -4 10 -3
0 -8 -4 -11 -10z"/>
<path d="M19342 23644 c-33 -33 -34 -37 -18 -46 22 -12 74 1 126 33 32 20 33
22 15 35 -35 26 -84 17 -123 -22z"/>
<path d="M19615 23610 c3 -5 10 -10 16 -10 5 0 9 5 9 10 0 6 -7 10 -16 10 -8
0 -12 -4 -9 -10z"/>
<path d="M19415 23560 c3 -5 8 -10 11 -10 2 0 4 5 4 10 0 6 -5 10 -11 10 -5 0
-7 -4 -4 -10z"/>
<path d="M19520 23560 c0 -5 5 -10 10 -10 6 0 10 5 10 10 0 6 -4 10 -10 10 -5
0 -10 -4 -10 -10z"/>
<path d="M19415 23438 c-15 -59 -75 -76 -75 -21 0 26 -1 27 -17 9 -17 -17 -17
-18 5 -33 17 -12 22 -25 22 -59 0 -42 -1 -44 -40 -55 -45 -14 -53 -29 -16 -29
33 0 56 10 56 24 0 6 13 17 29 23 53 20 81 99 53 149 -9 17 -11 16 -17 -8z"/>
<path d="M17525 23410 c-4 -6 -10 -24 -15 -40 -10 -34 7 -41 34 -14 13 12 14
20 5 37 -16 30 -16 30 -24 17z"/>
<path d="M19660 23335 c0 -36 13 -47 24 -19 11 28 6 54 -9 54 -10 0 -15 -11
-15 -35z"/>
<path d="M19411 23226 c-12 -14 -5 -26 16 -26 15 0 18 26 4 34 -5 3 -14 0 -20
-8z"/>
<path d="M19170 23216 c0 -9 7 -16 16 -16 17 0 14 22 -4 28 -7 2 -12 -3 -12
-12z"/>
<path d="M19566 23171 c-4 -7 -5 -15 -2 -18 9 -9 19 4 14 18 -4 11 -6 11 -12
0z"/>
<path d="M17480 23160 c0 -5 5 -10 10 -10 6 0 10 5 10 10 0 6 -4 10 -10 10 -5
0 -10 -4 -10 -10z"/>
<path d="M19460 23111 c0 -6 5 -13 10 -16 6 -3 10 1 10 9 0 9 -4 16 -10 16 -5
0 -10 -4 -10 -9z"/>
<path d="M19657 23113 c-12 -12 -7 -41 8 -47 9 -3 15 0 15 8 0 8 3 21 6 30 6
16 -16 23 -29 9z"/>
<path d="M19273 23074 c-8 -20 5 -31 45 -37 22 -4 32 -1 32 8 0 36 -65 61 -77
29z"/>
<path d="M19341 23012 c-6 -11 -24 -25 -41 -30 -36 -13 -46 -33 -30 -61 l11
-21 39 20 c44 23 73 60 68 87 -5 25 -35 28 -47 5z"/>
<path d="M17947 22969 c-18 -10 -17 -13 9 -40 15 -16 38 -29 51 -29 l23 0 -20
40 c-21 42 -32 47 -63 29z"/>
<path d="M18325 22970 c-8 -13 9 -20 24 -11 10 6 9 10 -3 14 -8 3 -18 2 -21
-3z"/>
<path d="M17620 22945 c-6 -15 -8 -36 -4 -47 14 -47 125 -76 168 -45 34 25
-10 102 -47 81 -6 -4 -22 -16 -34 -27 -23 -20 -23 -20 -23 0 0 11 -11 30 -25
43 l-24 23 -11 -28z"/>
<path d="M19570 22920 c0 -5 5 -10 11 -10 5 0 7 5 4 10 -3 6 -8 10 -11 10 -2
0 -4 -4 -4 -10z"/>
<path d="M18942 22911 c-10 -6 -9 -10 7 -14 14 -3 21 0 21 9 0 16 -9 18 -28 5z"/>
<path d="M19456 22868 c-13 -19 -14 -25 -3 -42 20 -29 29 -28 56 6 24 30 24
31 6 44 -26 20 -41 17 -59 -8z"/>
<path d="M19600 22876 c0 -8 7 -16 15 -20 10 -4 15 1 15 14 0 11 -7 20 -15 20
-8 0 -15 -6 -15 -14z"/>
<path d="M17530 22860 c0 -5 7 -10 16 -10 8 0 12 5 9 10 -3 6 -10 10 -16 10
-5 0 -9 -4 -9 -10z"/>
<path d="M18267 22822 c-3 -4 3 -13 14 -20 10 -7 19 -8 19 -3 0 13 -28 33 -33
23z"/>
<path d="M18630 22815 c-14 -16 -9 -20 43 -28 30 -5 31 -4 17 24 -13 23 -43
25 -60 4z"/>
<path d="M18520 22804 c0 -8 5 -12 10 -9 6 3 10 10 10 16 0 5 -4 9 -10 9 -5 0
-10 -7 -10 -16z"/>
<path d="M19256 22788 c-3 -13 -6 -32 -6 -44 0 -40 63 -73 76 -40 5 12 -49
106 -60 106 -2 0 -6 -10 -10 -22z"/>
<path d="M18716 22765 c4 -8 11 -15 16 -15 6 0 5 6 -2 15 -7 8 -14 15 -16 15
-2 0 -1 -7 2 -15z"/>
<path d="M18560 22755 c0 -22 18 -55 31 -55 18 0 6 65 -13 68 -11 2 -18 -3
-18 -13z"/>
<path d="M19033 22748 c-31 -35 -34 -45 -22 -72 11 -23 13 -24 33 -11 25 18
77 20 94 3 7 -7 12 -22 12 -34 0 -27 28 -40 37 -17 4 9 7 35 7 57 1 40 0 42
-54 68 -68 33 -81 34 -107 6z"/>
<path d="M17926 22721 c-4 -5 -2 -12 3 -15 5 -4 12 -2 15 3 4 5 2 12 -3 15 -5
4 -12 2 -15 -3z"/>
<path d="M18430 22670 c0 -5 5 -10 11 -10 5 0 7 5 4 10 -3 6 -8 10 -11 10 -2
0 -4 -4 -4 -10z"/>
<path d="M18577 22633 c-25 -24 22 -64 49 -42 8 7 20 21 25 31 9 16 5 18 -29
18 -21 0 -42 -3 -45 -7z"/>
<path d="M17780 22614 c0 -8 5 -12 10 -9 6 4 8 11 5 16 -9 14 -15 11 -15 -7z"/>
<path d="M19070 22560 c0 -5 5 -10 11 -10 5 0 7 5 4 10 -3 6 -8 10 -11 10 -2
0 -4 -4 -4 -10z"/>
<path d="M19110 22531 c0 -15 52 -33 63 -22 6 6 9 12 6 14 -10 9 -69 16 -69 8z"/>
<path d="M22865 18817 c-81 -10 -179 -12 -378 -8 -199 4 -310 -25 -563 -144
-397 -189 -369 -173 -393 -221 -30 -64 -93 -128 -157 -160 -55 -28 -146 -116
-253 -244 -25 -30 -71 -80 -102 -110 -49 -47 -62 -69 -94 -155 -21 -55 -57
-138 -80 -185 -49 -98 -104 -235 -150 -370 -30 -90 -31 -99 -22 -166 8 -58 7
-84 -6 -140 -31 -125 -15 -470 28 -624 9 -30 22 -90 31 -134 22 -115 68 -245
135 -381 67 -137 120 -218 271 -414 107 -138 166 -198 223 -228 17 -9 59 -43
95 -75 36 -33 94 -78 130 -99 36 -22 79 -50 96 -63 18 -12 58 -30 90 -40 81
-24 122 -43 164 -76 55 -43 246 -93 517 -135 146 -23 173 -24 278 -15 64 6
153 10 198 9 61 -1 96 4 137 20 30 11 105 29 167 40 91 16 124 27 177 58 36
21 102 58 147 83 45 24 103 64 129 87 25 23 71 53 101 66 84 37 231 132 279
179 24 24 59 68 78 98 20 30 58 80 85 110 72 81 212 296 250 386 19 44 44 111
57 149 12 39 42 113 66 166 39 85 46 111 59 229 9 73 22 163 30 200 11 52 13
129 11 317 -4 289 -24 457 -60 513 -45 68 -66 119 -99 238 -25 87 -43 130 -66
159 -19 23 -39 65 -47 99 -12 48 -26 70 -69 114 -44 46 -54 63 -60 103 -6 45
-10 50 -63 84 -31 20 -112 90 -180 155 -99 94 -139 125 -200 155 -43 21 -90
52 -106 71 -29 34 -154 102 -188 102 -10 0 -18 3 -18 8 0 4 -10 19 -23 35 -18
22 -36 30 -102 42 -105 19 -137 29 -172 54 -15 11 -61 32 -102 46 -81 27 -137
30 -276 12z m575 -298 c0 -17 -21 -19 -36 -4 -13 13 -14 18 -3 31 12 14 14 14
26 -2 7 -10 13 -21 13 -25z m215 -49 c3 -6 -1 -13 -10 -16 -19 -8 -30 0 -20
15 8 14 22 14 30 1z m29 -69 c16 -17 16 -20 1 -35 -9 -9 -21 -14 -26 -11 -10
7 -12 48 -2 58 9 9 8 10 27 -12z m202 -185 l-7 -46 -85 0 c-82 0 -85 1 -94 26
-18 46 -12 54 63 89 l72 34 29 -29 c26 -25 28 -32 22 -74z m-2068 2 c5 -7 13
-36 17 -64 5 -41 3 -53 -10 -64 -15 -13 -20 -11 -36 9 -15 18 -18 33 -13 65 7
54 12 66 22 66 5 0 14 -6 20 -12z m1137 -95 c61 -25 171 -66 245 -92 180 -62
264 -111 313 -181 21 -30 54 -63 73 -73 64 -33 119 -103 189 -239 37 -72 83
-148 102 -169 37 -41 51 -84 95 -289 18 -84 22 -138 23 -270 l0 -165 -31 -55
c-25 -45 -32 -70 -36 -135 -10 -135 -32 -183 -165 -353 -34 -44 -81 -112 -105
-152 l-43 -73 -235 -139 c-129 -76 -260 -147 -290 -159 -89 -34 -251 -43 -420
-25 -158 18 -231 39 -410 121 -152 70 -156 71 -170 45 -11 -21 -12 -20 -48 14
-20 20 -61 57 -91 83 -47 41 -140 158 -259 321 -17 24 -42 76 -53 116 -12 39
-32 89 -44 111 -31 54 -66 264 -72 435 -5 112 -2 158 17 265 26 152 45 206
132 376 89 173 128 230 233 335 126 128 274 222 450 288 83 32 378 96 475 104
8 1 65 -19 125 -45z m-1237 -15 c19 -19 -4 -48 -38 -48 -22 0 -30 5 -30 18 0
36 43 55 68 30z m2391 -283 c36 -42 48 -79 31 -100 -30 -36 -101 1 -116 59 -6
26 21 75 42 76 7 0 26 -16 43 -35z m226 -265 c65 -16 69 -22 55 -65 -13 -39
-59 -75 -97 -75 -30 0 -66 36 -87 86 -17 39 -17 43 -1 67 15 24 18 24 53 11
20 -7 55 -18 77 -24z m145 -240 c0 -3 -13 -20 -29 -39 -52 -63 -85 -6 -40 69
l21 34 24 -29 c13 -17 24 -32 24 -35z m66 -77 c-3 -3 -13 -3 -22 1 -13 5 -14
9 -3 22 11 14 13 14 22 -1 5 -9 6 -19 3 -22z m-3237 -47 c29 -30 31 -36 19
-55 -16 -26 -16 -26 -85 5 l-58 26 24 16 c14 10 30 22 35 29 17 19 30 15 65
-21z m-73 -151 c3 -14 1 -39 -6 -55 -7 -16 -10 -39 -7 -51 8 -29 -14 -19 -34
17 -9 16 -19 41 -23 56 -5 23 -2 30 21 42 38 21 42 20 49 -9z m3118 -27 c17
-142 17 -168 1 -168 -9 0 -30 13 -46 29 -30 31 -37 77 -23 150 5 26 11 31 35
31 25 0 28 -4 33 -42z m106 -183 c0 -3 -11 -5 -25 -5 -17 0 -23 4 -19 15 5 11
11 12 25 4 10 -5 19 -12 19 -14z m18 -132 c11 -34 10 -40 -9 -55 -24 -20 -37
-22 -73 -8 -25 9 -25 10 -10 47 18 43 30 53 60 53 15 0 24 -10 32 -37z m-3148
-62 c0 -5 -16 -21 -35 -35 l-35 -27 -30 23 c-35 28 -36 30 -8 72 l22 34 43
-30 c24 -16 43 -33 43 -37z m3017 -218 c52 -7 56 -26 16 -74 -27 -32 -93 -68
-125 -69 -24 0 -66 41 -74 72 -5 25 -1 29 53 57 32 17 65 28 73 25 8 -3 33 -8
57 -11z m-2982 -90 c22 -14 42 -27 44 -29 2 -2 -7 -19 -19 -39 -20 -33 -97
-95 -118 -95 -10 0 -22 47 -22 84 0 20 57 106 70 106 3 0 23 -12 45 -27z m149
-247 c6 -29 5 -40 -5 -47 -29 -18 -45 -9 -55 30 -10 36 -9 40 10 49 31 15 40
10 50 -32z m2321 -206 c3 -5 -1 -10 -10 -10 -9 0 -13 5 -10 10 3 6 8 10 10 10
2 0 7 -4 10 -10z m86 -178 c-16 -61 -26 -70 -51 -47 -32 29 -27 78 13 109 32
25 32 25 41 5 7 -13 5 -37 -3 -67z m-421 -56 c0 -39 -20 -60 -50 -51 -26 8
-25 25 1 59 29 37 49 34 49 -8z m230 -41 c20 -21 22 -28 12 -50 -6 -14 -18
-25 -25 -25 -21 0 -65 37 -72 62 -14 42 48 52 85 13z m41 -172 c-8 -15 -10
-15 -11 -2 0 17 10 32 18 25 2 -3 -1 -13 -7 -23z m-223 -18 c7 -6 -19 -45 -29
-45 -6 0 -24 9 -41 21 -28 20 -28 22 -12 40 15 17 18 17 48 2 17 -8 32 -17 34
-18z m-1303 -85 c12 -20 -5 -48 -26 -43 -26 7 -33 21 -19 38 14 17 36 19 45 5z
m-65 -37 c0 -28 -16 -47 -34 -40 -16 6 -22 38 -9 50 13 14 43 7 43 -10z m430
-7 c0 -3 -4 -8 -10 -11 -5 -3 -10 -1 -10 4 0 6 5 11 10 11 6 0 10 -2 10 -4z
m259 -42 c14 -32 10 -38 -24 -30 -27 7 -32 25 -13 44 17 17 23 15 37 -14z
m322 -7 c-13 -13 -26 -3 -16 12 3 6 11 8 17 5 6 -4 6 -10 -1 -17z m-606 -117
c18 -20 17 -20 -8 -20 -20 0 -27 5 -27 20 0 11 4 20 8 20 5 0 17 -9 27 -20z"/>
<path d="M25355 18785 c-77 -7 -197 -14 -267 -14 -150 -1 -186 -13 -222 -76
-30 -50 -33 -68 -50 -280 -10 -127 -12 -266 -6 -550 4 -209 3 -528 -2 -710 -6
-197 -6 -380 -1 -455 7 -98 6 -145 -6 -218 -12 -77 -13 -115 -4 -210 7 -71 12
-377 12 -772 1 -360 4 -683 7 -717 9 -95 11 -96 160 -104 71 -4 156 -12 189
-18 92 -17 243 -14 299 5 69 24 76 46 76 238 0 84 5 199 10 254 6 56 12 334
14 619 3 542 4 558 49 623 32 48 66 70 142 91 80 22 95 18 205 -59 39 -28 84
-53 100 -57 19 -4 41 -25 71 -65 30 -42 56 -64 91 -81 26 -12 48 -27 49 -33 0
-6 26 -32 58 -58 31 -26 97 -85 147 -131 56 -52 106 -89 135 -100 34 -13 59
-34 98 -81 42 -52 65 -70 124 -98 118 -56 209 -173 308 -393 l54 -120 3 -211
3 -211 47 -52 47 -51 240 -5 c288 -5 361 2 390 40 24 32 22 -65 28 1090 3 631
9 945 16 978 8 35 8 85 0 185 -7 91 -8 255 -3 487 4 193 8 537 8 765 1 495 1
497 -79 518 -27 7 -131 17 -230 22 -99 5 -194 12 -211 16 -35 7 -105 -25 -164
-75 l-35 -30 -3 -333 c-1 -183 -4 -594 -6 -913 -2 -319 -7 -607 -11 -640 -15
-118 -44 -145 -159 -145 -79 0 -80 0 -155 51 -42 29 -98 71 -126 94 -27 23
-86 63 -130 90 -89 55 -157 113 -183 157 -9 16 -105 100 -212 186 -107 86
-216 175 -241 197 -25 22 -74 64 -107 93 -128 110 -221 326 -272 627 -24 147
-27 253 -9 344 17 86 7 225 -17 253 -48 52 -91 59 -269 43z m2443 -415 c16
-15 19 -26 13 -42 -17 -47 -62 -23 -54 30 6 37 12 39 41 12z m-134 -199 c11
-12 20 -43 23 -80 5 -51 3 -61 -10 -61 -20 0 -53 42 -67 86 -10 30 -9 38 6 55
21 24 27 24 48 0z m-2343 -42 c10 -19 20 -58 24 -86 l7 -53 -30 0 c-16 0 -37
9 -47 20 -23 25 -29 98 -9 117 8 8 14 21 14 30 0 24 22 9 41 -28z m79 -185 c0
-8 -7 -14 -15 -14 -15 0 -21 21 -9 33 10 9 24 -2 24 -19z m2344 -30 c19 -7 21
-35 4 -52 -16 -16 -23 -15 -43 4 -15 15 -15 18 1 35 20 22 17 21 38 13z
m-2294 -109 l17 -49 -46 -22 -46 -21 -6 26 c-4 14 -7 43 -8 63 -1 31 3 38 27
46 39 15 44 11 62 -43z m2279 -51 c17 -14 31 -32 31 -39 0 -26 -69 -47 -136
-43 -93 6 -99 20 -26 57 33 17 63 35 67 41 10 17 32 11 64 -16z m-2262 -216
c-3 -7 -5 -2 -5 12 0 14 2 19 5 13 2 -7 2 -19 0 -25z m-136 -14 c22 -23 23
-27 8 -52 -8 -15 -26 -31 -40 -36 -28 -10 -119 0 -119 13 0 5 16 29 35 55 43
55 77 61 116 20z m309 -201 c0 -38 -3 -38 -62 11 -28 23 -34 34 -27 47 8 15
12 15 49 -3 35 -18 40 -24 40 -55z m84 -135 c15 -32 26 -64 23 -72 -6 -15
-105 -48 -119 -40 -28 18 19 178 51 172 9 -2 29 -29 45 -60z m-336 -28 c3 -51
-12 -83 -73 -160 l-39 -50 -22 21 -22 21 34 54 c19 29 34 56 34 59 0 4 10 29
21 56 18 40 26 49 43 47 17 -2 21 -11 24 -48z m2 -257 c0 -31 -30 -123 -41
-123 -8 0 -19 63 -19 113 0 35 2 37 30 37 26 0 30 -4 30 -27z m107 -30 c-3
-10 -5 -4 -5 12 0 17 2 24 5 18 2 -7 2 -21 0 -30z m2063 -297 c0 -8 20 -38 45
-67 25 -29 45 -56 45 -60 0 -12 -60 -29 -101 -29 -31 0 -41 5 -52 27 -12 22
-12 35 -2 74 7 26 16 52 19 58 10 16 46 13 46 -3z m-70 -207 c0 -5 -7 -9 -15
-9 -15 0 -20 12 -9 23 8 8 24 -1 24 -14z m205 -9 c3 -5 1 -10 -4 -10 -6 0 -11
5 -11 10 0 6 2 10 4 10 3 0 8 -4 11 -10z m-217 -192 c18 -18 14 -63 -7 -89
l-19 -24 -20 25 c-25 32 -26 35 -13 70 11 32 37 40 59 18z m-134 -44 c20 -8
21 -67 1 -84 -11 -9 -20 -8 -45 10 -57 41 -22 99 44 74z m270 -86 c2 -18 9
-62 15 -98 10 -63 10 -66 -19 -109 -26 -41 -28 -48 -15 -67 25 -38 29 -92 10
-114 -27 -30 -43 -24 -68 26 -20 41 -22 43 -27 22 -4 -14 -14 -24 -27 -26 -18
-3 -23 3 -28 31 -10 54 -3 82 20 81 l21 0 -20 118 c-10 65 -17 121 -14 124 5
4 124 41 140 43 4 1 9 -14 12 -31z m-98 -476 c-4 -3 -12 0 -19 7 -9 9 -9 14 3
21 11 7 16 5 18 -6 2 -9 1 -18 -2 -22z m144 -148 c0 -56 -34 -44 -66 22 l-20
42 43 -15 c39 -14 43 -18 43 -49z"/>
<path d="M6535 18770 c-38 -5 -128 -16 -198 -26 -111 -16 -136 -16 -185 -5
-115 27 -166 9 -176 -61 -3 -24 -9 -185 -12 -358 -5 -263 -4 -328 9 -390 16
-79 36 -297 35 -390 0 -30 2 -100 5 -155 3 -55 1 -125 -5 -155 -7 -39 -7 -111
1 -245 7 -104 12 -203 13 -220 1 -16 -11 -88 -26 -160 -26 -123 -27 -132 -12
-177 13 -42 13 -64 1 -195 -19 -192 -19 -287 1 -352 14 -50 14 -55 -7 -109
-21 -53 -23 -83 -32 -407 -8 -313 -8 -358 7 -428 10 -43 26 -98 36 -121 l18
-43 88 -6 c49 -4 123 -15 164 -26 67 -16 108 -18 381 -16 185 1 313 6 325 13
20 10 385 -1 499 -15 33 -5 83 -5 110 -2 76 11 264 9 315 -2 143 -31 189 -21
224 49 74 148 296 653 296 674 0 48 -25 54 -193 45 -184 -10 -574 -1 -752 17
-92 9 -153 10 -208 3 -60 -7 -96 -6 -164 7 -81 14 -91 19 -121 53 -18 21 -47
67 -64 101 -31 62 -31 66 -20 120 6 31 10 57 8 59 -1 2 -16 -7 -32 -19 -27
-22 -28 -22 -14 -2 18 25 94 122 175 223 59 73 61 75 185 129 167 72 256 100
375 117 55 8 106 15 113 15 7 0 17 10 22 23 5 12 30 72 56 132 42 99 83 211
191 519 32 91 34 101 19 112 -11 7 -85 15 -204 19 -218 9 -291 -1 -419 -59
-44 -19 -135 -52 -203 -71 -139 -40 -184 -41 -271 -4 -82 36 -98 61 -126 200
-25 123 -25 124 -7 189 13 45 19 102 19 185 1 140 17 187 90 254 74 69 103 79
345 125 41 8 86 13 100 11 14 -3 100 -16 193 -31 l167 -27 65 22 c67 22 170
27 249 13 38 -7 343 3 403 13 l31 6 -48 103 c-27 57 -79 175 -115 262 -37 88
-96 217 -132 287 l-66 128 -66 0 c-36 0 -93 -2 -126 -3 -162 -8 -373 -2 -418
11 -39 11 -57 12 -108 1 -50 -11 -78 -11 -156 0 -75 10 -102 10 -132 0 -31
-10 -43 -9 -75 4 -24 10 -68 16 -116 16 -43 0 -96 7 -120 15 -45 16 -93 17
-205 5z m483 -246 c2 -15 -4 -23 -19 -27 -26 -7 -45 5 -52 34 -5 18 -1 20 31
17 29 -2 38 -8 40 -24z m-399 -62 c9 -42 9 -43 -10 -26 -12 11 -19 30 -19 53
0 45 16 31 29 -27z m572 23 c15 -25 38 -42 81 -62 l60 -27 -23 -19 c-17 -14
-33 -17 -64 -13 -78 10 -104 18 -126 42 -20 21 -21 26 -9 56 28 69 50 76 81
23z m529 16 c0 -14 -18 -23 -30 -16 -6 4 -8 11 -5 16 8 12 35 12 35 0z m-892
-26 c1 -11 -3 -29 -11 -39 -13 -18 -15 -18 -68 -1 -30 10 -56 19 -58 21 -2 2
4 13 14 24 15 17 29 20 69 18 42 -2 51 -6 54 -23z m10 -128 c13 -15 -1 -42
-17 -33 -13 8 -15 46 -2 46 5 0 13 -6 19 -13z m-373 -66 c10 -32 13 -62 9 -90
-7 -43 8 -55 34 -29 9 9 12 4 12 -26 0 -31 -3 -37 -16 -32 -9 3 -20 6 -26 6
-6 0 -7 7 -4 15 3 9 1 15 -7 14 -6 -1 -18 -1 -25 0 -18 2 -52 62 -52 94 0 33
37 110 50 102 4 -3 16 -27 25 -54z m226 46 c-1 -12 -15 -9 -19 4 -3 6 1 10 8
8 6 -3 11 -8 11 -12z m-97 -310 c8 -22 6 -31 -14 -52 -38 -41 -60 -29 -60 34
0 19 7 31 23 39 30 14 40 10 51 -21z m-14 -1047 c0 -5 -7 -10 -15 -10 -8 0
-15 5 -15 10 0 6 7 10 15 10 8 0 15 -4 15 -10z m-66 -136 c8 -21 -11 -44 -36
-44 -21 0 -33 22 -24 45 7 20 52 19 60 -1z m137 -4 c20 -11 25 -56 10 -94 -6
-16 -12 -10 -38 35 -17 30 -29 57 -26 62 6 10 31 9 54 -3z m519 -113 c0 -69
-3 -78 -39 -135 -33 -50 -46 -62 -74 -67 -19 -4 -61 -27 -93 -51 -33 -24 -62
-44 -65 -44 -10 0 -36 34 -43 56 -6 18 1 24 44 42 27 11 50 25 50 30 0 5 -7
26 -16 47 -19 47 -21 92 -4 108 10 10 12 8 6 -7 -5 -13 2 -28 20 -47 28 -29
44 -30 44 -2 0 20 98 126 125 135 43 14 45 11 45 -65z m-497 -89 c6 -20 -4
-48 -17 -48 -18 0 -36 21 -36 42 0 21 46 26 53 6z m-245 -75 c11 -10 31 -43
45 -74 24 -54 24 -56 6 -67 -26 -17 -55 -15 -73 4 -18 17 -24 154 -7 154 5 0
18 -8 29 -17z m379 -53 c37 -13 58 -53 43 -81 -6 -10 -17 -19 -25 -19 -12 0
-85 89 -85 104 0 9 34 7 67 -4z m-120 -8 c8 -5 6 -14 -8 -31 -16 -19 -22 -21
-34 -11 -14 11 -14 15 1 31 19 21 24 22 41 11z m-215 -509 c17 -25 45 -50 73
-63 33 -16 45 -28 45 -43 0 -41 -13 -49 -67 -41 -42 5 -58 2 -101 -20 -28 -14
-53 -26 -56 -26 -2 0 -10 16 -16 36 -15 44 -9 84 21 153 19 45 25 52 48 49 17
-2 35 -17 53 -45z m46 -384 c-2 -6 -8 -10 -13 -10 -5 0 -11 4 -13 10 -2 6 4
11 13 11 9 0 15 -5 13 -11z m747 -359 c32 -12 50 -56 36 -87 -16 -35 -57 -30
-97 13 -40 42 -41 48 -12 68 26 19 37 20 73 6z m617 -79 c21 -30 36 -57 33
-60 -3 -3 -31 -13 -61 -22 l-56 -17 -68 51 -68 51 32 22 c32 22 76 32 126 30
18 -1 35 -16 62 -55z"/>
<path d="M12770 18773 c-19 -1 -108 -13 -198 -25 -147 -20 -170 -20 -225 -8
-116 25 -161 9 -171 -62 -3 -24 -9 -185 -12 -358 -5 -263 -4 -328 9 -390 16
-79 36 -297 35 -390 0 -30 2 -100 5 -155 3 -55 1 -125 -5 -155 -8 -39 -7 -109
1 -245 7 -104 12 -203 13 -220 1 -16 -11 -88 -26 -160 -15 -71 -24 -138 -21
-150 21 -67 22 -96 9 -228 -18 -186 -17 -282 2 -346 14 -50 14 -55 -7 -109
-20 -51 -23 -85 -31 -347 -11 -355 -7 -468 22 -555 34 -101 28 -96 127 -103
48 -4 122 -15 163 -26 67 -16 108 -18 381 -16 186 1 313 6 325 13 20 10 388
-1 502 -16 31 -4 80 -4 107 -1 74 10 253 9 310 -2 156 -30 193 -22 229 49 77
154 296 653 296 674 0 48 -26 54 -188 45 -181 -10 -594 -1 -762 17 -89 9 -147
10 -202 3 -61 -7 -97 -6 -165 7 -81 14 -91 19 -121 53 -18 21 -47 67 -64 101
-31 62 -31 66 -20 120 6 31 10 57 8 59 -1 2 -15 -7 -31 -19 -27 -21 -28 -21
-16 0 6 11 16 24 22 28 6 3 41 47 79 98 114 154 131 168 265 226 167 72 253
98 380 116 61 9 112 18 114 20 11 11 120 279 166 409 29 83 70 198 92 257 21
58 34 110 30 115 -5 4 -97 12 -205 17 -229 11 -297 2 -430 -58 -43 -20 -137
-52 -207 -72 -124 -36 -131 -37 -189 -25 -142 29 -173 65 -205 228 -22 119
-23 122 -5 180 12 41 18 94 18 183 1 110 4 131 25 173 47 95 129 152 261 181
233 50 201 50 541 -5 69 -11 81 -10 120 6 39 16 78 19 344 20 165 1 312 5 326
9 l27 8 -49 102 c-26 57 -78 175 -114 262 -37 88 -96 217 -132 287 l-66 128
-66 0 c-36 0 -93 -2 -126 -3 -162 -8 -373 -2 -418 11 -39 11 -57 12 -108 1
-49 -11 -78 -11 -159 0 -77 10 -105 10 -127 1 -23 -9 -37 -9 -72 4 -25 8 -77
15 -121 15 -43 0 -96 7 -120 15 -40 14 -87 16 -170 8z m448 -249 c2 -15 -4
-23 -19 -27 -26 -7 -45 5 -52 34 -5 18 -1 20 31 17 29 -2 38 -8 40 -24z m-399
-62 c9 -42 9 -43 -10 -26 -12 11 -19 30 -19 53 0 45 16 31 29 -27z m572 23
c15 -25 38 -42 81 -62 l60 -27 -22 -18 c-12 -10 -33 -18 -45 -18 -49 0 -126
24 -146 46 -20 21 -21 26 -9 56 28 69 50 76 81 23z m529 16 c0 -14 -18 -23
-31 -15 -8 4 -7 9 2 15 18 11 29 11 29 0z m-892 -26 c1 -11 -3 -29 -11 -39
-13 -18 -15 -18 -68 -1 -30 10 -56 19 -58 21 -2 2 4 13 14 24 15 17 29 20 69
18 42 -2 51 -6 54 -23z m10 -128 c13 -15 -1 -42 -17 -33 -13 8 -15 46 -2 46 5
0 13 -6 19 -13z m-373 -66 c10 -32 13 -62 9 -90 -7 -43 8 -55 34 -29 9 9 12 4
12 -26 0 -31 -3 -37 -16 -32 -9 3 -20 6 -26 6 -6 0 -7 7 -4 15 3 9 1 15 -7 14
-6 -1 -18 -1 -25 0 -18 2 -52 62 -52 94 0 33 37 110 50 102 4 -3 16 -27 25
-54z m230 50 c10 -17 -12 -21 -25 -6 -10 12 -10 15 3 15 9 0 18 -4 22 -9z
m-101 -314 c8 -22 6 -31 -14 -52 -38 -41 -60 -29 -60 34 0 19 7 31 23 39 30
14 40 10 51 -21z m-19 -1047 c-3 -5 -10 -10 -16 -10 -5 0 -9 5 -9 10 0 6 7 10
16 10 8 0 12 -4 9 -10z m-61 -136 c8 -21 -11 -44 -36 -44 -21 0 -33 22 -24 45
7 20 52 19 60 -1z m137 -4 c20 -11 25 -56 10 -94 -6 -16 -12 -10 -38 35 -17
30 -29 57 -26 62 6 10 31 9 54 -3z m519 -113 c0 -69 -3 -78 -39 -134 -31 -49
-46 -63 -73 -68 -18 -4 -61 -28 -96 -53 -62 -44 -64 -44 -82 -26 -10 10 -21
28 -24 40 -6 18 1 24 45 42 45 19 50 24 43 44 -27 83 -31 105 -23 126 5 12 11
22 15 22 3 0 3 -7 0 -17 -4 -10 3 -26 21 -45 32 -34 43 -35 43 -6 0 21 90 126
120 140 44 20 50 11 50 -65z m-497 -89 c6 -20 -4 -48 -17 -48 -18 0 -36 21
-36 42 0 21 46 26 53 6z m-245 -75 c11 -10 31 -43 45 -74 24 -54 24 -56 6 -67
-26 -17 -55 -15 -73 4 -18 17 -24 154 -7 154 5 0 18 -8 29 -17z m381 -54 c38
-13 56 -50 41 -80 -6 -10 -17 -19 -25 -19 -12 0 -85 89 -85 104 0 10 34 7 69
-5z m-122 -15 c1 -5 -4 -18 -12 -28 -12 -16 -17 -17 -30 -6 -14 12 -14 15 2
32 17 19 34 20 40 2z m-218 -497 c14 -21 46 -49 73 -64 44 -24 49 -30 46 -57
l-3 -31 -58 3 c-45 2 -68 -3 -107 -23 -27 -14 -51 -25 -54 -25 -2 0 -10 16
-16 36 -15 44 -9 84 21 153 19 46 25 52 48 49 17 -2 34 -16 50 -41z m49 -388
c-2 -6 -8 -10 -13 -10 -5 0 -11 4 -13 10 -2 6 4 11 13 11 9 0 15 -5 13 -11z
m745 -358 c32 -12 53 -62 37 -90 -17 -33 -57 -27 -96 15 -40 42 -41 48 -12 68
26 18 38 19 71 7z m619 -80 c21 -30 36 -57 33 -60 -3 -3 -31 -13 -61 -22 l-56
-17 -68 51 -68 51 32 22 c32 22 76 32 126 30 18 -1 35 -16 62 -55z"/>
<path d="M15525 18754 c-60 -2 -240 -8 -400 -14 -264 -11 -294 -14 -335 -33
l-45 -22 -14 -250 c-16 -277 -20 -790 -11 -1465 2 -118 1 -433 -1 -700 -2
-267 -3 -702 -2 -968 2 -453 3 -485 22 -526 23 -54 47 -70 131 -92 70 -18 264
-16 425 5 94 12 115 22 141 64 17 29 20 60 25 292 4 171 10 270 18 290 22 52
59 92 130 140 l70 47 73 -17 c41 -9 97 -29 125 -45 53 -31 132 -120 213 -240
68 -101 118 -157 203 -225 137 -110 282 -170 537 -224 180 -38 222 -44 236
-34 26 19 263 388 337 526 l37 67 -33 21 c-24 15 -42 18 -72 14 -74 -10 -385
118 -450 185 -40 42 -56 157 -32 233 20 64 36 81 144 157 55 38 98 78 127 118
25 33 74 84 109 112 49 39 75 70 107 128 24 42 66 116 95 163 83 137 115 292
122 589 l5 205 -35 140 c-20 77 -43 174 -53 215 -18 81 -85 264 -129 351 -27
52 -80 130 -227 332 -76 104 -109 130 -290 234 -134 77 -366 163 -523 194 -27
5 -115 10 -195 10 -80 -1 -163 4 -185 9 -46 12 -240 19 -400 14z m90 -124 c3
-5 -1 -10 -10 -10 -9 0 -13 5 -10 10 3 6 8 10 10 10 2 0 7 -4 10 -10z m-420
-30 l16 -30 -46 0 c-46 0 -53 7 -35 41 16 29 47 23 65 -11z m574 -2 c11 -31 3
-48 -23 -48 -15 0 -27 9 -34 25 -11 23 -9 27 11 35 33 13 37 12 46 -12z m-309
-57 c11 -22 12 -87 1 -114 -6 -17 -8 -16 -28 5 -19 21 -49 96 -41 102 9 8 44
25 50 26 4 0 12 -9 18 -19z m-210 -128 c-1 -20 -30 -43 -54 -43 -28 0 -34 18
-14 38 13 13 68 17 68 5z m1841 -119 c11 -14 10 -18 -6 -30 -17 -13 -21 -13
-32 3 -7 9 -13 23 -13 30 0 18 35 16 51 -3z m-1889 -59 c11 -5 12 -18 4 -70
-9 -63 -10 -65 -38 -65 -23 0 -32 7 -45 35 -11 23 -27 38 -50 46 -18 6 -33 14
-33 19 0 23 123 50 162 35z m-92 -189 c0 -3 -4 -8 -10 -11 -5 -3 -10 -1 -10 4
0 6 5 11 10 11 6 0 10 -2 10 -4z m1225 -35 c50 -18 116 -41 148 -51 81 -26
120 -59 181 -153 29 -45 63 -91 76 -102 32 -29 57 -83 65 -140 4 -28 18 -85
31 -127 13 -43 24 -107 25 -145 1 -37 8 -87 16 -111 13 -39 11 -58 -16 -221
-30 -177 -57 -272 -93 -323 -31 -44 -132 -114 -215 -148 -43 -17 -121 -56
-175 -86 -76 -44 -110 -57 -165 -65 -37 -5 -99 -14 -138 -20 -64 -10 -80 -8
-191 19 -66 16 -142 41 -170 55 -66 34 -127 99 -160 170 -31 70 -46 197 -31
272 8 41 6 62 -10 116 -19 62 -19 70 -6 130 11 48 16 140 17 359 l1 295 39 85
c21 47 42 90 47 96 5 7 40 32 77 57 102 68 143 77 367 73 186 -2 192 -3 280
-35z m871 7 c37 -40 76 -106 69 -118 -3 -4 -20 -11 -39 -14 -19 -4 -50 -17
-70 -31 l-36 -24 -26 22 c-16 14 -27 36 -31 62 -4 37 -2 43 42 88 26 26 50 47
54 47 4 0 21 -15 37 -32z m117 -113 c8 -18 -11 -31 -25 -17 -11 11 -3 32 12
32 4 0 10 -7 13 -15z m14 -199 c-4 -9 -11 -16 -17 -16 -11 0 -14 33 -3 44 11
10 26 -11 20 -28z m-129 -27 c16 -25 19 -22 -40 -42 -46 -15 -48 -15 -48 3 0
19 44 60 64 60 6 0 17 -9 24 -21z m-30 -197 c9 -7 8 -13 -8 -27 -20 -18 -20
-18 -20 8 0 28 6 32 28 19z m141 -282 c22 -11 45 -64 37 -85 -3 -9 -18 -15
-41 -15 l-35 0 0 48 c0 62 6 70 39 52z m-2141 -763 c9 -7 9 -13 1 -23 -20 -24
-39 -16 -39 17 0 30 5 31 38 6z m412 -187 c0 -5 -4 -10 -10 -10 -5 0 -10 5
-10 10 0 6 5 10 10 10 6 0 10 -4 10 -10z m-336 -127 c-7 -76 -25 -123 -47
-123 -6 0 -21 12 -32 26 l-21 27 29 56 c23 46 60 90 75 91 2 0 0 -35 -4 -77z
m881 -23 c0 -27 -22 -39 -31 -16 -8 22 3 49 19 43 6 -2 12 -14 12 -27z m-305
8 c0 -7 3 -23 6 -34 5 -19 -2 -24 -55 -42 l-61 -21 -28 24 c-24 21 -25 25 -12
39 8 8 42 22 75 30 77 18 75 18 75 4z m638 -40 c-17 -29 -33 -55 -36 -58 -5
-6 -42 39 -42 52 0 21 50 58 79 58 l31 0 -32 -52z m-138 2 c26 -26 25 -34 -5
-48 -38 -18 -49 -15 -68 17 -17 28 -17 30 0 40 27 16 51 13 73 -9z m-310 -59
c0 -6 -4 -13 -10 -16 -5 -3 -10 1 -10 9 0 9 5 16 10 16 6 0 10 -4 10 -9z m499
-30 c7 -13 7 -29 0 -51 -10 -27 -15 -31 -42 -28 -24 2 -33 9 -37 28 -5 20 0
30 24 48 36 27 42 27 55 3z m-1294 -61 c5 -15 0 -26 -17 -39 -29 -24 -38 -18
-38 25 0 29 3 34 24 34 16 0 27 -7 31 -20z m125 -100 c0 -3 -14 -19 -31 -36
l-30 -29 -19 25 c-40 52 -12 90 47 62 18 -9 33 -19 33 -22z m1247 -109 c16
-21 16 -33 -2 -57 -14 -18 -16 -17 -53 26 -32 36 -37 48 -29 62 10 15 13 15
41 1 17 -9 36 -23 43 -32z m-1400 -96 c36 -6 43 -11 48 -35 4 -16 1 -38 -5
-49 -11 -21 -11 -21 -38 -1 -16 11 -47 21 -74 22 -51 3 -55 9 -38 53 8 22 15
26 38 21 15 -3 46 -8 69 -11z m1443 -75 c13 -25 -6 -36 -47 -25 l-28 7 25 19
c32 24 37 24 50 -1z"/>
<path d="M18161 18752 c-29 -5 -86 -123 -156 -322 -36 -105 -130 -352 -172
-457 -3 -6 14 -21 37 -33 37 -19 59 -22 159 -21 64 0 172 4 241 7 146 8 192
-2 328 -68 71 -35 86 -47 109 -87 14 -25 48 -81 74 -124 54 -86 57 -98 32
-118 -14 -13 -15 -37 -9 -234 3 -121 11 -274 17 -340 11 -131 5 -620 -12 -927
-8 -138 -7 -213 1 -288 10 -79 10 -127 0 -212 -10 -88 -9 -126 1 -189 10 -64
10 -110 0 -246 -14 -185 -6 -297 29 -377 18 -43 19 -44 77 -51 32 -3 96 -7
143 -7 111 -1 429 22 458 33 14 5 32 28 44 56 21 48 21 51 10 423 -8 272 -9
452 -1 655 11 280 13 674 7 1330 -4 386 -4 388 60 530 44 100 129 188 229 237
67 33 68 33 243 37 97 2 222 -2 280 -9 72 -8 113 -9 131 -2 l26 11 -13 78
c-22 133 -76 275 -206 545 -58 120 -75 148 -92 148 -12 0 -320 0 -686 -2 -923
-2 -1275 2 -1324 16 -23 6 -52 10 -65 8z m907 -265 c4 -30 -4 -33 -32 -12 -22
17 -14 48 11 43 11 -2 19 -14 21 -31z m670 -51 c5 -24 -10 -38 -31 -30 -20 7
-22 25 -5 42 16 16 32 10 36 -12z m-464 -31 c4 -16 -1 -23 -25 -34 -33 -14
-45 -9 -51 24 -3 14 5 25 27 37 31 17 36 15 49 -27z m-314 -37 c0 -16 -3 -19
-11 -11 -6 6 -8 16 -5 22 11 17 16 13 16 -11z m553 -7 c5 -5 7 -21 3 -35 -6
-24 -11 -26 -56 -26 -28 0 -50 -4 -50 -10 0 -5 -8 -10 -17 -10 -17 1 -17 2 0
14 15 11 17 22 11 52 l-7 37 53 -6 c30 -4 58 -11 63 -16z m-465 -72 c39 -13
50 -44 26 -70 -35 -38 -114 -14 -114 36 0 42 31 54 88 34z m252 -22 c0 -8 -8
-21 -18 -31 -18 -15 -20 -15 -36 3 -10 11 -15 25 -11 30 9 16 65 14 65 -2z
m184 -123 c14 -20 15 -31 6 -58 -15 -45 -53 -80 -79 -71 -21 6 -81 69 -81 85
0 5 15 12 33 15 19 4 47 17 63 30 37 30 38 30 58 -1z m-384 -1 c0 -5 -4 -15
-10 -23 -11 -18 -25 -7 -17 15 6 15 27 21 27 8z m155 -113 c17 0 16 -3 -10
-24 -32 -26 -39 -24 -50 13 -7 21 -5 23 16 18 13 -4 33 -7 44 -7z m80 -110
l26 -10 -20 -26 c-11 -14 -23 -42 -27 -63 -4 -20 -13 -44 -22 -53 -18 -21 -72
-33 -108 -24 -26 7 -26 8 -20 68 6 49 12 65 34 82 52 42 77 54 94 45 9 -5 29
-13 43 -19z m-55 -231 c19 -12 45 -30 57 -41 21 -19 21 -23 7 -49 -31 -61
-100 -43 -153 39 -17 27 -31 54 -31 60 0 20 82 14 120 -9z m19 -828 c13 -9 30
-26 38 -37 12 -18 11 -24 -5 -44 l-18 -22 -65 22 c-35 13 -68 27 -73 31 -5 4
2 24 14 44 20 32 26 35 54 30 17 -4 42 -14 55 -24z m49 -313 c26 -51 32 -73
27 -97 -6 -27 -11 -31 -39 -31 -21 0 -40 8 -52 21 -10 12 -31 27 -46 35 -31
16 -36 41 -12 59 15 11 15 14 0 43 -9 17 -16 34 -16 37 0 3 24 5 53 3 l52 -3
33 -67z m-57 -267 l61 -29 -57 -36 -56 -37 -29 23 c-16 13 -29 26 -29 30 -1 7
42 77 47 78 1 0 30 -13 63 -29z m70 -161 c25 -14 25 -57 -1 -65 -10 -3 -28 -1
-40 5 -19 10 -19 13 -5 40 17 34 19 34 46 20z m-147 -196 c22 -8 20 -21 -5
-35 -25 -13 -45 1 -36 25 7 17 16 19 41 10z m131 -234 c11 -18 -6 -50 -26 -50
-22 0 -23 1 -7 35 12 26 23 32 33 15z m-178 -45 c12 -9 27 -32 32 -52 10 -34
8 -40 -25 -80 -39 -48 -42 -49 -68 -30 -16 11 -18 23 -14 68 6 65 23 109 41
109 7 0 22 -7 34 -15z"/>
<path d="M11380 18735 c-65 -20 -94 -57 -130 -160 -34 -96 -57 -137 -126 -222
-34 -41 -44 -62 -44 -90 0 -21 -18 -75 -44 -132 -24 -53 -49 -116 -56 -141 -7
-24 -25 -70 -41 -102 -44 -87 -109 -253 -109 -280 -1 -12 -17 -63 -36 -113
-20 -49 -51 -132 -69 -183 -19 -51 -44 -112 -57 -135 -14 -23 -29 -51 -36 -62
-6 -11 -20 -67 -31 -125 -38 -198 -179 -562 -238 -615 -33 -31 -106 -65 -136
-65 -53 0 -127 85 -127 145 0 11 -18 57 -41 103 -57 118 -159 423 -166 501 -5
48 -14 75 -37 110 -18 26 -54 105 -81 176 -26 72 -61 160 -77 197 -16 37 -28
85 -28 108 0 31 -16 74 -60 164 -35 70 -69 156 -81 206 -11 47 -27 92 -34 100
-22 25 -42 80 -55 150 -6 36 -20 74 -30 85 -28 31 -66 113 -85 185 -10 36 -22
73 -27 82 -14 29 -112 51 -233 53 -66 2 -130 9 -159 18 -44 14 -57 14 -140 0
-121 -21 -129 -24 -151 -73 -18 -41 -18 -44 -1 -113 37 -144 115 -367 176
-498 34 -74 70 -162 80 -197 10 -34 29 -79 42 -100 26 -39 88 -226 108 -326 7
-33 34 -102 61 -155 76 -149 197 -506 220 -648 10 -61 19 -86 42 -113 41 -47
73 -122 87 -200 21 -123 42 -185 81 -247 49 -78 70 -131 99 -253 15 -62 36
-117 60 -158 21 -34 47 -99 59 -145 24 -91 60 -199 97 -295 14 -35 39 -131 55
-215 l30 -152 59 -60 60 -60 177 -4 c106 -2 217 1 275 9 94 12 97 13 127 51
38 47 63 104 101 229 86 283 199 603 239 675 15 28 43 109 61 180 33 133 54
186 96 242 34 45 43 74 60 188 14 96 37 157 102 275 11 19 30 82 42 140 31
146 140 470 188 560 23 43 50 114 63 165 57 234 89 331 124 375 7 8 19 44 28
80 14 58 68 187 247 595 57 129 66 171 50 219 -10 33 -15 36 -79 50 -152 35
-468 46 -551 21z m106 -581 c40 -15 43 -19 49 -63 6 -47 -6 -101 -24 -101 -5
0 -37 14 -71 31 -53 26 -61 34 -56 52 3 12 6 35 6 50 0 19 7 30 23 37 30 12
26 12 73 -6z m-2072 -144 c20 -28 36 -52 36 -55 0 -9 -51 -5 -69 5 -10 5 -26
21 -36 36 -17 26 -17 27 6 45 13 10 25 19 26 19 0 0 17 -23 37 -50z m2026 -40
c0 -11 -4 -20 -9 -20 -14 0 -23 18 -16 30 10 17 25 11 25 -10z m-2032 -80 l23
-29 -21 -21 c-24 -24 -54 -25 -98 -1 l-34 17 49 32 c26 18 50 32 53 31 3 0 15
-13 28 -29z m-34 -163 c14 -10 15 -17 6 -41 -9 -25 -7 -30 15 -48 31 -24 25
-37 -12 -30 -35 6 -51 19 -74 57 -18 29 -18 30 3 52 25 26 37 28 62 10z m1978
-49 l36 -63 -21 -37 c-16 -30 -67 -68 -90 -68 -3 0 -8 15 -11 34 -6 33 -36 72
-36 47 0 -6 -6 -11 -14 -11 -22 0 -46 29 -39 46 5 14 121 113 133 114 3 0 22
-28 42 -62z m-1913 -192 c15 -18 -1 -30 -30 -21 -16 5 -18 10 -8 21 15 18 23
18 38 0z m1790 -152 c22 -28 21 -36 -25 -126 -17 -34 -29 -47 -32 -38 -3 8
-16 39 -29 67 -16 36 -21 61 -17 80 10 41 12 43 49 43 24 0 39 -7 54 -26z
m-101 -185 c35 -34 33 -46 -13 -89 -20 -18 -29 -21 -32 -12 -3 7 -15 25 -28
40 l-23 26 25 33 c14 18 28 33 32 33 4 0 21 -14 39 -31z m-593 -940 c12 -38
-36 -54 -56 -18 -9 17 -8 23 2 30 24 15 47 10 54 -12z m-397 -51 c14 -14 16
-54 3 -63 -12 -7 -31 26 -31 54 0 24 10 27 28 9z m202 -3 c11 -13 8 -15 -16
-15 -16 0 -40 -3 -54 -6 l-25 -6 24 21 c27 25 54 27 71 6z m254 -186 c-3 -5
-10 -7 -15 -3 -5 3 -7 10 -3 15 3 5 10 7 15 3 5 -3 7 -10 3 -15z m-352 -250
c27 -17 81 -41 121 -54 63 -19 72 -25 75 -47 5 -40 -40 -46 -109 -13 -30 13
-62 25 -72 25 -16 0 -16 -3 -3 -35 14 -32 13 -36 -5 -49 -13 -8 -31 -11 -52
-7 -27 6 -32 11 -32 35 0 28 10 38 48 50 17 6 16 10 -12 41 -33 37 -35 44 -25
69 8 21 10 21 66 -15z m-112 -39 c0 -5 -9 -10 -20 -10 -16 0 -20 7 -20 32 l0
32 20 -22 c11 -12 20 -26 20 -32z m210 -140 c0 -5 -5 -10 -11 -10 -5 0 -7 5
-4 10 3 6 8 10 11 10 2 0 4 -4 4 -10z m-117 -94 c-2 -26 3 -46 15 -60 16 -19
16 -19 -3 -12 -11 5 -33 13 -50 19 -16 5 -31 10 -32 11 0 1 -4 17 -8 38 -7 39
3 48 55 45 23 -2 25 -6 23 -41z"/>
<path d="M13435 14173 c-92 -13 -129 -13 -225 -4 -85 9 -139 9 -210 1 -179
-20 -227 -36 -463 -149 -81 -39 -150 -71 -152 -71 -2 0 -51 -23 -107 -51 -97
-48 -104 -54 -128 -101 -32 -65 -88 -120 -163 -161 -48 -25 -84 -58 -166 -152
-58 -66 -134 -147 -167 -180 -56 -54 -66 -71 -110 -180 -26 -66 -53 -129 -60
-140 -21 -34 -91 -198 -141 -332 -46 -125 -47 -130 -48 -248 -1 -66 -7 -165
-14 -220 -10 -78 -10 -134 -1 -250 11 -156 18 -193 68 -410 69 -292 165 -486
372 -755 133 -173 178 -221 245 -265 28 -18 87 -64 132 -101 115 -97 217 -160
304 -189 80 -27 123 -48 155 -76 40 -36 232 -86 502 -129 166 -27 191 -29 275
-20 51 6 137 10 192 9 85 -1 110 2 165 24 36 13 90 28 120 32 99 13 164 32
215 62 28 17 90 52 140 78 49 27 110 68 135 91 25 24 67 52 94 63 67 29 226
126 275 167 22 19 65 72 96 117 31 45 78 109 106 142 63 75 167 230 206 310
17 33 45 103 63 155 18 52 52 138 76 191 29 64 47 120 54 170 6 41 18 124 27
184 12 76 18 188 21 365 2 219 0 274 -18 390 -15 100 -27 144 -44 170 -43 65
-63 114 -96 230 -22 81 -41 127 -63 154 -17 22 -39 69 -49 105 -14 53 -27 75
-68 116 -38 39 -52 62 -61 101 -10 44 -17 54 -58 79 -25 16 -103 82 -172 147
-123 115 -224 188 -260 188 -10 0 -37 21 -61 46 -41 45 -144 104 -180 104 -9
0 -26 16 -38 35 -16 26 -30 36 -58 40 -100 16 -181 40 -222 65 -110 68 -223
82 -435 53z m621 -300 c-6 -14 -9 -14 -27 3 -19 17 -19 19 -3 31 15 11 20 11
27 -3 5 -8 6 -22 3 -31z m222 -51 c2 -7 -3 -12 -12 -12 -9 0 -16 7 -16 16 0
17 22 14 28 -4z m32 -57 c15 -18 6 -45 -14 -45 -16 0 -31 34 -21 50 9 14 21
12 35 -5z m177 -107 c23 -22 29 -59 17 -105 -6 -22 -12 -23 -89 -23 l-83 0
-10 40 -10 41 66 34 c37 19 71 34 76 35 6 0 20 -10 33 -22z m-2033 -132 c8
-49 7 -59 -8 -74 -16 -16 -18 -16 -32 3 -11 14 -14 34 -10 68 10 88 36 90 50
3z m1126 -43 c63 -25 165 -63 227 -83 62 -21 154 -61 205 -88 77 -42 99 -59
123 -97 17 -28 51 -61 80 -80 74 -47 115 -100 187 -242 34 -69 80 -144 100
-166 33 -35 40 -53 67 -166 43 -184 53 -272 49 -427 -3 -128 -6 -143 -30 -184
-17 -29 -28 -68 -32 -110 -16 -157 -43 -220 -148 -349 -38 -47 -92 -123 -119
-168 -55 -91 -33 -75 -396 -287 -211 -124 -201 -121 -453 -121 -281 1 -306 7
-595 139 -55 25 -105 46 -112 46 -6 0 -15 -10 -18 -21 -7 -21 -9 -20 -41 15
-18 20 -37 36 -43 36 -16 0 -129 118 -174 182 -74 105 -88 122 -117 153 -35
38 -65 98 -81 161 -7 27 -25 74 -40 104 -20 40 -33 91 -48 190 -34 226 -37
335 -12 483 30 176 42 209 132 387 121 237 238 377 414 494 157 104 302 161
535 209 218 45 201 46 340 -10z m-1235 -13 c3 -6 3 -19 0 -30 -9 -28 -61 -28
-68 0 -8 30 52 56 68 30z m2399 -297 c38 -45 39 -84 3 -97 -33 -12 -75 14 -93
60 -11 26 -10 34 8 62 23 36 33 33 82 -25z m191 -246 c79 -23 80 -23 78 -55
-1 -40 -18 -61 -62 -79 -51 -22 -84 -4 -116 64 -24 52 -25 56 -9 74 21 23 12
23 109 -4z m149 -217 c17 -31 17 -31 -9 -65 -29 -39 -37 -42 -55 -20 -14 17
-7 55 17 91 20 31 25 30 47 -6z m78 -102 c-15 -15 -26 -4 -18 18 5 13 9 15 18
6 9 -9 9 -15 0 -24z m-3202 -88 c0 -9 -7 -23 -15 -30 -12 -10 -26 -6 -77 17
l-62 29 37 23 c20 12 37 27 37 33 0 5 18 -5 40 -22 22 -17 40 -40 40 -50z
m-104 -115 c3 -13 1 -38 -4 -54 -6 -16 -8 -40 -5 -53 6 -23 5 -23 -21 3 -18
16 -29 40 -33 65 -4 35 -2 41 18 51 34 17 38 16 45 -12z m3124 -13 c0 -16 3
-63 6 -105 6 -68 5 -77 -10 -77 -23 0 -64 42 -72 74 -3 15 -3 51 1 81 6 55 7
55 41 55 31 0 34 -3 34 -28z m90 -200 c-25 -4 -35 2 -26 17 5 7 13 7 27 -2 20
-12 20 -12 -1 -15z m33 -128 c7 -34 5 -41 -14 -57 -22 -18 -63 -17 -82 2 -14
14 23 89 46 94 36 7 41 2 50 -39z m-3180 -91 c-21 -18 -41 -33 -44 -33 -3 0
-18 13 -33 29 l-28 29 28 35 28 36 44 -32 44 -32 -39 -32z m3044 -188 c24 -4
46 -11 49 -16 8 -14 -42 -77 -80 -100 -44 -27 -110 -25 -130 3 -9 12 -16 34
-16 48 0 21 10 31 53 52 28 15 59 25 67 23 8 -2 34 -7 57 -10z m-2975 -91 c21
-15 38 -33 38 -40 0 -19 -56 -80 -97 -105 -39 -25 -48 -19 -59 37 -6 33 4 59
40 106 26 34 31 34 78 2z m143 -245 c5 -30 3 -44 -6 -50 -21 -13 -49 -11 -49
5 0 7 -3 27 -6 44 -5 26 -3 31 17 35 13 2 27 5 31 6 3 0 9 -18 13 -40z m2440
-149 c3 -5 1 -10 -4 -10 -6 0 -11 5 -11 10 0 6 2 10 4 10 3 0 8 -4 11 -10z
m-119 -67 c-10 -10 -19 5 -10 18 6 11 8 11 12 0 2 -7 1 -15 -2 -18z m93 -105
c7 -20 -11 -113 -25 -127 -10 -10 -54 45 -54 66 0 19 52 83 68 83 1 0 6 -10
11 -22z m-423 -114 c8 -31 -25 -70 -50 -61 -22 9 -20 43 4 67 27 27 38 25 46
-6z m223 -42 l34 -28 -18 -28 c-11 -16 -24 -25 -32 -22 -8 4 -18 6 -23 6 -9 0
-55 69 -49 74 8 7 44 25 49 26 3 0 21 -13 39 -28z m51 -167 c0 -8 -4 -15 -10
-15 -5 0 -7 7 -4 15 4 8 8 15 10 15 2 0 4 -7 4 -15z m-232 -38 c2 -7 -4 -19
-12 -26 -13 -11 -22 -9 -51 9 -34 21 -35 23 -20 40 15 16 20 17 48 5 18 -7 33
-20 35 -28z m-1298 -91 c0 -33 -12 -39 -39 -20 -17 13 -20 19 -10 30 19 24 49
17 49 -10z m-67 -13 c8 -14 -12 -53 -27 -53 -20 0 -29 16 -21 40 6 19 39 28
48 13z m697 -81 c0 -8 -8 -10 -27 -6 -38 9 -38 10 -18 40 l18 27 13 -24 c7
-13 13 -30 14 -37z m324 29 c3 -5 -1 -11 -9 -15 -9 -3 -15 0 -15 9 0 16 16 20
24 6z m-616 -123 c17 -17 15 -28 -6 -28 -24 0 -32 8 -25 26 6 17 15 18 31 2z"/>
<path d="M9745 14164 c-11 -3 -82 -21 -159 -40 -234 -59 -320 -99 -460 -211
-182 -146 -218 -190 -369 -446 -177 -300 -201 -408 -158 -711 l21 -150 -36
-37 -37 -38 27 -46 c15 -25 34 -70 42 -101 21 -82 55 -141 157 -276 52 -68 98
-131 103 -139 16 -28 375 -225 545 -300 90 -39 204 -91 254 -115 49 -24 98
-44 108 -44 23 0 233 -104 261 -128 42 -38 96 -198 96 -284 0 -70 -48 -210
-82 -238 -40 -32 -141 -79 -208 -96 -83 -21 -198 -15 -265 15 -26 12 -75 25
-109 31 -38 6 -96 27 -155 57 -90 45 -120 65 -271 182 -70 54 -90 59 -165 40
-38 -10 -65 -32 -184 -152 -78 -77 -159 -168 -182 -203 -37 -57 -40 -67 -34
-107 6 -39 20 -58 128 -172 l122 -128 160 -79 c265 -130 343 -148 717 -169
204 -11 232 -10 333 11 28 6 101 17 163 25 182 23 189 26 359 154 157 119 218
188 436 488 47 65 87 199 87 294 0 36 7 116 15 177 21 164 13 197 -119 459
-74 148 -95 179 -142 210 -14 9 -34 33 -44 54 -18 34 -24 38 -72 44 -43 6 -60
15 -91 45 -20 21 -55 45 -77 54 -22 9 -57 27 -78 40 -67 42 -163 87 -347 163
-99 41 -225 99 -280 128 -55 29 -128 63 -163 75 -114 38 -161 78 -253 215 -51
77 -53 82 -53 150 0 69 1 73 74 204 92 165 142 215 260 260 115 45 169 54 315
55 137 1 128 3 290 -61 43 -17 241 -136 359 -217 46 -31 105 -34 153 -8 17 9
66 56 108 105 42 48 80 87 84 87 20 0 107 90 152 157 l50 74 -46 95 c-79 164
-211 277 -469 405 -179 88 -282 114 -511 129 -240 16 -339 19 -360 14z m279
-333 c7 -10 -18 -34 -27 -25 -7 8 3 34 13 34 5 0 11 -4 14 -9z m488 -128 c23
-21 23 -26 -8 -73 -21 -31 -33 -40 -55 -40 -35 0 -46 28 -25 69 14 26 51 61
65 61 2 0 13 -7 23 -17z m178 -94 c0 -6 -4 -7 -10 -4 -5 3 -10 11 -10 16 0 6
5 7 10 4 6 -3 10 -11 10 -16z m-1319 -41 c6 -12 12 -44 13 -72 1 -50 1 -51
-31 -54 -39 -4 -48 17 -38 94 5 44 10 54 25 54 11 0 25 -10 31 -22z m-197 -27
c3 -5 -1 -11 -9 -15 -9 -3 -15 0 -15 9 0 16 16 20 24 6z m76 -122 c0 -5 -25
-25 -55 -46 -45 -31 -61 -51 -92 -113 -44 -86 -78 -112 -119 -89 -31 16 -33
78 -3 120 17 24 27 29 64 29 l43 0 7 51 c7 50 8 52 59 74 l51 23 23 -21 c12
-11 22 -24 22 -28z m-222 -348 c7 -4 21 -40 32 -80 l18 -71 -21 -15 c-31 -22
-55 -19 -81 10 -35 38 -39 73 -13 123 21 41 39 50 65 33z m67 -580 c7 -12 -12
-24 -25 -16 -11 7 -4 25 10 25 5 0 11 -4 15 -9z m1455 -769 c0 -9 -51 -72 -58
-72 -4 0 -20 10 -36 23 l-29 23 27 42 27 43 34 -27 c19 -14 35 -29 35 -32z
m-2 -204 c-3 -37 -24 -44 -42 -15 -9 15 -7 21 8 33 30 21 38 17 34 -18z m80
-266 c14 -21 13 -22 -17 -22 -32 0 -36 6 -25 35 8 20 23 15 42 -13z m70 -176
c14 -14 12 -23 -18 -88 -18 -40 -36 -77 -40 -81 -4 -4 -21 27 -38 69 -29 74
-30 78 -14 101 14 20 23 23 56 19 21 -2 46 -11 54 -20z m-138 -182 c0 -22 -2
-25 -15 -14 -12 10 -13 16 -4 26 16 20 19 18 19 -12z m-210 -229 c15 -19 5
-35 -24 -35 -29 0 -35 6 -29 31 6 22 35 25 53 4z m190 -11 c0 -8 -6 -14 -14
-14 -18 0 -29 27 -13 33 16 6 27 -1 27 -19z m-90 -39 c0 -26 -39 -80 -50 -68
-4 4 -10 25 -13 45 -5 30 -2 39 16 51 26 18 47 5 47 -28z m-867 18 c49 -13
-11 -83 -72 -83 -32 0 -44 6 -65 31 -14 17 -26 34 -26 39 0 22 100 31 163 13z
m531 -12 c15 -17 15 -21 -14 -77 -18 -32 -33 -60 -35 -62 -2 -2 -21 2 -43 9
-38 11 -40 13 -31 38 14 35 77 111 93 111 7 0 20 -8 30 -19z m-984 -32 c0 -5
-4 -9 -10 -9 -5 0 -10 7 -10 16 0 8 5 12 10 9 6 -3 10 -10 10 -16z m194 -21
c-11 -37 -25 -48 -60 -48 -45 0 -43 14 9 44 52 32 60 32 51 4z m359 -25 c-7
-2 -19 -2 -25 0 -7 3 -2 5 12 5 14 0 19 -2 13 -5z m192 -66 l27 -22 -21 -19
c-17 -15 -23 -16 -36 -6 -16 14 -21 70 -6 70 6 0 22 -10 36 -23z m-605 -36 c0
-6 -4 -12 -9 -15 -13 -8 -42 4 -35 15 7 12 44 12 44 0z"/>
<path d="M23663 14156 c-38 -17 -62 -53 -103 -156 -43 -106 -80 -176 -117
-220 -28 -32 -33 -46 -33 -88 0 -27 -6 -69 -13 -94 -13 -42 -72 -152 -123
-228 -12 -19 -30 -57 -39 -84 -9 -26 -37 -80 -62 -120 -76 -117 -113 -221
-113 -312 0 -28 -13 -52 -64 -117 -58 -76 -64 -88 -76 -157 -14 -88 -21 -103
-65 -150 -26 -27 -40 -59 -64 -140 -17 -58 -59 -166 -94 -240 -82 -173 -138
-318 -182 -472 -20 -68 -39 -124 -43 -126 -62 -22 -151 -131 -171 -208 -7 -27
-23 -71 -36 -99 -58 -125 -107 -238 -144 -330 -21 -55 -61 -147 -86 -205 -53
-117 -130 -329 -146 -398 -11 -53 0 -98 34 -130 35 -33 213 -52 470 -51 339 0
313 -7 507 137 167 124 298 200 380 222 69 19 221 93 260 127 20 17 53 35 75
39 23 4 55 21 79 43 50 45 76 56 183 81 46 11 106 31 134 46 50 25 52 25 180
16 158 -12 208 -33 314 -133 62 -59 85 -92 170 -245 55 -97 112 -193 127 -212
15 -19 28 -38 28 -42 0 -11 103 -51 152 -60 38 -7 117 1 450 46 l128 17 30 47
30 47 -51 119 c-27 65 -59 137 -69 159 -11 22 -46 123 -78 225 -33 102 -81
239 -107 305 -26 66 -62 176 -81 245 -64 241 -122 397 -202 538 -21 37 -69
151 -106 253 -37 101 -99 262 -137 358 -110 273 -195 510 -224 617 -14 55 -41
135 -60 179 -18 44 -42 103 -53 130 -12 28 -37 106 -56 175 -39 142 -175 524
-201 563 -32 50 -62 60 -205 73 -289 25 -293 25 -327 10z m263 -608 c-3 -13
-6 -27 -6 -33 -1 -11 -29 35 -30 48 0 4 10 7 21 7 17 0 20 -4 15 -22z m172 5
c-2 -12 -14 -19 -36 -21 -33 -3 -40 6 -20 26 19 19 60 15 56 -5z m-272 -130
c15 -34 18 -74 8 -110 -8 -29 -16 -29 -54 4 -30 25 -32 30 -27 73 3 25 11 58
18 74 12 26 14 27 27 9 8 -10 20 -32 28 -50z m-116 -23 c0 -13 -7 -20 -20 -20
-23 0 -26 10 -8 28 18 18 28 15 28 -8z m340 -249 c22 -16 71 -36 110 -46 66
-16 70 -19 70 -45 0 -15 -6 -30 -12 -33 -7 -2 -59 17 -114 43 -99 46 -126 72
-109 100 9 14 10 13 55 -19z m-520 -301 c16 -8 17 -14 7 -45 -10 -33 -11 -34
-29 -18 -18 16 -24 53 -11 66 8 9 11 9 33 -3z m704 -53 c17 -12 17 -14 -1 -36
l-18 -23 -19 21 c-33 36 -2 67 38 38z m173 -203 c3 -8 0 -21 -6 -27 -10 -9
-16 -8 -27 7 -8 11 -14 23 -14 28 0 15 41 8 47 -8z m-1077 -41 c0 -26 -1 -26
-14 -8 -14 20 -12 35 5 35 5 0 9 -12 9 -27z m564 -93 c16 -6 36 -30 54 -67 53
-105 110 -247 136 -338 14 -49 37 -126 51 -170 32 -94 31 -190 -1 -244 -29
-48 -109 -97 -199 -122 -44 -12 -115 -39 -159 -61 -90 -45 -207 -78 -277 -78
-43 0 -53 4 -84 38 -34 36 -34 39 -35 120 0 79 3 90 54 210 30 70 100 236 155
370 79 192 109 253 142 290 52 59 102 76 163 52z m701 -668 l-7 -27 -19 25
c-24 32 -24 39 4 49 26 10 33 -5 22 -47z m41 -189 c-10 -10 -19 5 -10 18 6 11
8 11 12 0 2 -7 1 -15 -2 -18z m-1836 -175 l0 -32 -16 23 c-14 19 -14 25 -3 32
19 12 19 13 19 -23z m120 -34 c0 -8 -7 -14 -15 -14 -15 0 -21 21 -9 33 10 9
24 -2 24 -19z m1823 -68 c23 -34 2 -50 -53 -41 -53 9 -58 21 -18 45 42 26 52
25 71 -4z m-189 -54 c5 -29 4 -32 -13 -22 -12 6 -20 23 -23 50 -3 37 -3 39 13
22 9 -9 19 -32 23 -50z m-104 -2 c0 -5 -7 -10 -15 -10 -8 0 -15 5 -15 10 0 6
7 10 15 10 8 0 15 -4 15 -10z m410 -110 c0 -5 -4 -10 -9 -10 -6 0 -13 5 -16
10 -3 6 1 10 9 10 9 0 16 -4 16 -10z m-1369 -60 c26 -15 52 -68 45 -95 -6 -22
-78 -95 -94 -95 -5 0 -17 9 -27 20 -17 19 -16 22 15 100 18 44 34 80 37 80 2
0 13 -5 24 -10z m-816 -24 c17 -14 64 -65 103 -114 56 -71 67 -92 55 -96 -16
-6 -63 18 -63 32 0 4 -40 8 -88 10 -106 3 -155 24 -160 67 -3 22 6 36 49 76
29 27 57 49 63 49 5 0 23 -11 41 -24z m245 -18 c-1 -40 -13 -58 -40 -58 -31 0
-44 25 -28 54 11 19 68 22 68 4z m360 -113 c0 -17 -17 -28 -30 -20 -7 4 -7 13
0 26 12 21 30 17 30 -6z m1719 -59 c10 -12 9 -20 -4 -40 -19 -29 -32 -32 -58
-12 -16 12 -16 16 -2 50 13 30 18 35 34 27 10 -6 23 -17 30 -25z m94 -48 c-3
-16 -12 -28 -19 -28 -18 0 -18 5 2 36 20 30 24 28 17 -8z m-2316 16 c-3 -3
-12 -4 -19 -1 -8 3 -5 6 6 6 11 1 17 -2 13 -5z m-89 -156 c19 -19 14 -46 -9
-59 -17 -9 -25 -8 -37 5 -13 12 -13 20 -4 41 13 27 31 32 50 13z m122 -18 c0
-5 -7 -10 -15 -10 -8 0 -15 5 -15 10 0 6 7 10 15 10 8 0 15 -4 15 -10z"/>
<path d="M15953 14130 c-23 -5 -56 -16 -74 -25 -18 -10 -60 -20 -93 -22 -82
-7 -122 -33 -137 -86 -7 -24 -12 -104 -12 -187 1 -172 1 -246 0 -320 -1 -30 0
-251 2 -490 1 -239 0 -442 -4 -451 -3 -8 -34 -26 -69 -38 l-63 -22 1 -457 c0
-323 -4 -490 -14 -568 l-13 -112 40 -93 c23 -52 46 -112 53 -134 20 -63 58
-134 110 -205 27 -36 69 -100 94 -142 77 -131 98 -159 137 -179 21 -10 50 -36
65 -56 46 -64 310 -282 409 -338 57 -32 206 -90 345 -133 236 -74 509 -41 800
96 157 73 188 90 239 129 24 18 48 33 54 33 5 0 76 65 156 144 80 79 155 146
166 150 11 3 31 23 45 43 14 21 54 78 89 127 35 49 91 142 124 205 33 64 79
154 103 200 58 112 68 168 59 316 -4 66 -6 300 -4 520 2 220 3 427 2 460 -2
92 -2 117 3 635 2 267 4 544 5 615 1 164 -19 270 -57 301 -31 25 -88 44 -133
44 -17 0 -58 11 -91 25 -86 36 -149 34 -292 -11 -75 -24 -119 -43 -122 -53 -3
-9 -10 -71 -16 -139 -6 -67 -17 -155 -25 -195 -16 -86 -13 -575 6 -719 7 -62
8 -139 0 -265 -6 -108 -7 -268 -2 -408 7 -192 6 -235 -6 -262 -12 -26 -13 -42
-3 -86 7 -37 9 -117 5 -237 -6 -175 -7 -185 -47 -313 -54 -178 -73 -210 -170
-302 -212 -201 -355 -275 -529 -275 -139 0 -249 48 -411 180 -194 158 -208
176 -257 314 -66 186 -92 404 -71 588 9 86 9 114 -1 142 -10 27 -10 61 -3 150
6 63 8 136 4 163 -3 26 -2 82 2 123 7 74 22 869 21 1090 0 71 -8 159 -21 230
-12 63 -24 142 -28 175 -8 70 -17 85 -54 85 -14 0 -54 11 -88 25 -65 26 -144
31 -229 15z m2354 -365 c-8 -17 -33 -46 -55 -63 l-40 -32 -6 31 c-12 64 -7 88
30 129 l37 41 25 -37 c23 -35 24 -38 9 -69z m73 -60 c9 -11 6 -22 -21 -55 -18
-22 -35 -40 -37 -40 -12 0 -42 34 -42 47 0 21 46 63 68 63 11 0 25 -7 32 -15z
m-2331 -250 c1 -30 -2 -55 -7 -55 -15 0 -43 49 -36 63 7 12 36 47 39 47 1 0 3
-25 4 -55z m2175 -127 c12 -35 -3 -102 -24 -106 -9 -1 -24 4 -35 12 -23 17
-27 85 -6 110 20 24 54 16 65 -16z m-2029 -108 c-5 -8 -11 -8 -17 -2 -6 6 -7
16 -3 22 5 8 11 8 17 2 6 -6 7 -16 3 -22z m-127 -15 c18 -40 15 -55 -13 -55
-35 0 -52 35 -29 61 22 25 28 24 42 -6z m2315 -19 c8 -24 6 -32 -9 -43 -24
-17 -36 -13 -52 19 -17 36 -6 60 26 56 18 -2 28 -12 35 -32z m-2274 -149 c8
-10 4 -19 -19 -35 -16 -12 -32 -22 -35 -22 -7 0 -6 55 2 63 11 11 40 8 52 -6z
m-21 -151 c2 -19 -4 -36 -19 -52 -46 -49 -72 -19 -39 46 25 48 53 52 58 6z
m2232 -2 c0 -8 -7 -14 -15 -14 -15 0 -21 21 -9 33 10 9 24 -2 24 -19z m108
-124 c3 -45 1 -46 -34 -24 l-25 17 22 23 c30 32 35 30 37 -16z m-31 -1076 c-9
-9 -28 6 -21 18 4 6 10 6 17 -1 6 -6 8 -13 4 -17z m-2216 -194 c16 -41 29 -80
29 -86 0 -23 -37 -45 -64 -38 -30 7 -32 20 -11 60 20 38 19 79 -1 99 -15 15
-19 14 -43 -9 -22 -21 -29 -23 -43 -12 -38 28 -13 68 28 45 21 -11 27 -10 42
4 9 10 21 16 26 14 5 -2 22 -36 37 -77z m2177 71 c19 -12 5 -83 -16 -79 -23 5
-36 32 -28 61 7 28 21 33 44 18z m-127 -247 c-2 -105 -21 -160 -49 -145 -10 5
-24 17 -32 25 -7 9 -16 16 -21 16 -19 0 -59 49 -59 73 0 13 15 47 33 73 29 41
40 50 73 54 21 3 43 3 48 -1 5 -4 8 -47 7 -95z m-197 -177 l29 -23 -16 -52
c-13 -46 -13 -56 1 -96 19 -51 6 -96 -27 -96 -22 0 -27 10 -36 76 -4 27 -15
63 -26 81 -18 32 -18 33 4 82 12 28 27 51 32 51 6 0 23 -10 39 -23z m216 -30
c0 -13 -11 -34 -24 -46 l-23 -22 -6 28 c-3 18 0 34 10 46 22 24 43 21 43 -6z
m-386 -189 l36 -42 -46 -47 -47 -48 -36 15 c-45 19 -43 16 -49 73 l-4 49 43
20 c24 11 49 21 56 21 6 1 28 -18 47 -41z m-193 -189 c10 -19 6 -27 -32 -65
-24 -24 -46 -44 -49 -44 -3 1 -18 12 -35 25 l-30 25 31 11 c19 8 35 23 42 41
13 35 55 39 73 7z m-154 -24 c9 -25 -2 -27 -22 -5 -17 18 -17 20 -1 20 9 0 19
-7 23 -15z m-83 -18 c16 -25 -16 -56 -38 -37 -19 15 -20 32 -4 48 15 15 28 11
42 -11z m-461 -33 c3 -3 3 -12 0 -19 -6 -17 -33 -8 -33 11 0 14 21 19 33 8z
m-63 -50 c0 -17 -22 -14 -28 4 -2 7 3 12 12 12 9 0 16 -7 16 -16z m168 4 c21
-21 14 -84 -11 -114 l-24 -27 -20 34 c-37 63 -48 100 -32 110 20 13 73 11 87
-3z m237 -27 c3 -5 1 -12 -5 -16 -5 -3 -10 1 -10 9 0 18 6 21 15 7z"/>
<path d="M18962 14125 c-75 -10 -85 -14 -111 -46 -40 -48 -48 -114 -46 -414 1
-241 2 -252 25 -297 l23 -46 156 -7 c115 -6 206 -4 346 9 127 11 211 13 254 8
51 -7 82 -4 170 15 102 23 113 24 296 14 218 -12 289 -26 321 -67 34 -42 48
-105 41 -188 -6 -82 -16 -108 -59 -147 -15 -15 -37 -47 -47 -73 -11 -25 -37
-65 -59 -88 -21 -24 -60 -81 -87 -128 -42 -74 -288 -415 -422 -584 -25 -33
-73 -107 -105 -165 -33 -58 -68 -115 -78 -126 -10 -11 -67 -95 -126 -186 -62
-94 -154 -218 -213 -285 -56 -66 -116 -144 -131 -174 -15 -30 -72 -122 -127
-205 -54 -82 -111 -175 -127 -205 l-28 -55 46 -79 c109 -183 230 -351 318
-442 l60 -61 -46 -38 c-55 -45 -61 -65 -8 -31 26 17 63 28 122 36 108 15 302
16 359 2 34 -8 58 -8 95 2 39 9 177 11 576 8 289 -2 568 -3 620 -3 569 6 595
7 633 24 21 9 52 26 68 38 l30 21 -3 296 c-4 372 4 353 -150 371 -64 8 -192
12 -338 10 -315 -4 -301 -4 -502 10 -491 33 -511 36 -578 97 -50 45 -74 108
-68 173 4 40 22 80 89 193 85 146 191 298 260 372 33 36 167 230 357 516 31
47 86 114 123 150 51 51 76 86 112 160 29 60 85 147 152 235 59 77 129 178
156 224 28 46 81 120 118 165 122 147 319 432 327 474 5 24 -4 43 -47 103 -28
41 -73 97 -98 125 -25 28 -61 78 -80 110 -91 155 -105 164 -271 164 -69 0
-260 7 -425 16 -255 13 -337 14 -549 3 -162 -8 -326 -9 -465 -4 -362 13 -769
13 -859 0z m1123 -276 c30 -11 55 -25 55 -30 0 -14 -64 -39 -98 -39 -78 0
-110 20 -97 61 11 33 64 36 140 8z m1252 -27 c17 -11 -8 -47 -37 -55 -15 -4
-22 1 -26 18 -3 13 -3 29 1 34 7 13 44 14 62 3z m-298 -68 l20 -26 -32 -38
c-17 -21 -35 -37 -38 -34 -4 2 -12 25 -18 51 -11 42 -10 49 5 60 26 19 40 16
63 -13z m-1691 4 c15 -15 16 -74 1 -83 -17 -11 -49 26 -49 56 0 24 9 35 31 38
3 1 10 -4 17 -11z m572 -8 c0 -5 -5 -10 -11 -10 -5 0 -7 5 -4 10 3 6 8 10 11
10 2 0 4 -4 4 -10z m1250 -155 c0 -14 -4 -25 -9 -25 -4 0 -6 11 -3 25 2 14 6
25 8 25 2 0 4 -11 4 -25z m-30 -45 c0 -6 -7 -22 -16 -35 l-16 -24 -24 28 c-13
16 -24 32 -24 35 0 3 18 6 40 6 22 0 40 -5 40 -10z m144 -100 l-48 -40 -28 27
c-16 15 -25 30 -21 34 9 9 51 15 107 18 l38 1 -48 -40z m-104 -87 c0 -12 -4
-25 -10 -28 -6 -4 -10 11 -10 37 0 31 3 39 10 28 5 -8 10 -25 10 -37z m-170
-112 c0 -25 -11 -32 -39 -24 -21 5 -21 7 -5 24 22 25 44 24 44 0z m110 7 c0
-22 -12 -58 -19 -58 -3 0 -15 7 -26 16 -20 15 -20 15 5 34 29 23 40 25 40 8z
m-60 -163 c0 -33 -2 -35 -20 -25 -23 12 -26 30 -8 48 20 20 28 14 28 -23z
m-274 -130 c-8 -21 -22 -19 -47 6 l-21 21 29 30 28 29 9 -35 c4 -20 5 -43 2
-51z m-1013 -1652 l27 -5 -25 -30 c-14 -16 -25 -33 -25 -37 0 -4 -8 -16 -18
-27 -10 -11 -27 -32 -36 -47 -15 -22 -21 -25 -38 -16 -30 16 -20 54 14 54 27
-1 27 0 11 25 -9 14 -23 35 -31 47 -7 12 -11 26 -8 32 7 10 84 13 129 4z
m-134 -259 c1 -6 -6 -17 -15 -24 -21 -19 -37 1 -56 71 -16 56 -15 57 6 67 19
8 23 4 43 -47 12 -31 22 -61 22 -67z m195 -134 c14 -22 26 -42 26 -45 0 -3
-26 -5 -57 -3 -57 3 -58 3 -61 36 -3 26 1 34 20 41 38 16 44 13 72 -29z m-328
-91 c6 -10 -32 -117 -48 -137 -29 -34 -45 -33 -74 9 l-27 40 52 53 c51 52 80
62 97 35z m225 -56 c13 -35 3 -75 -24 -101 -34 -32 -43 -30 -72 12 -26 38 -26
41 -11 72 11 25 23 34 48 37 18 2 36 5 41 5 4 1 12 -10 18 -25z m175 -21 c7
-4 17 -25 23 -48 6 -22 20 -49 31 -59 15 -14 17 -21 9 -32 -6 -7 -18 -13 -26
-13 -8 0 -12 -4 -9 -9 7 -11 -17 -21 -47 -21 -21 0 -21 1 3 20 l25 19 -32 13
c-22 8 -40 26 -55 56 l-23 43 25 19 c26 20 57 25 76 12z m834 -88 c0 -32 -4
-44 -12 -41 -12 3 -19 61 -10 80 10 22 22 1 22 -39z m-544 2 c9 -24 -15 -58
-39 -54 -27 4 -33 30 -12 52 20 20 44 21 51 2z m694 -62 c0 -7 -4 -14 -9 -14
-5 0 -17 -3 -27 -7 -14 -5 -16 -2 -12 20 3 15 2 27 -2 27 -5 0 -6 9 -3 20 5
19 6 19 29 -5 13 -14 24 -33 24 -41z m642 -18 c-3 -49 -8 -66 -20 -71 -35 -13
-148 -17 -189 -6 -77 21 -51 53 78 96 41 14 85 29 99 34 14 5 27 9 30 10 3 1
4 -28 2 -63z m-1879 39 c0 -6 -7 -11 -16 -13 -12 -3 -15 1 -11 13 7 17 25 17
27 0z m1587 -30 c0 -9 -9 -15 -25 -15 -26 0 -34 15 -12 23 23 10 37 7 37 -8z
m-206 -51 c20 -8 21 -28 2 -43 -17 -14 -41 11 -32 34 6 17 8 17 30 9z"/>
<path d="M14144 8673 c-119 -6 -109 62 -106 -696 1 -359 5 -778 7 -932 5 -312
6 -682 5 -1250 0 -313 9 -533 22 -539 42 -20 81 -25 222 -30 166 -5 598 12
881 35 89 7 169 20 220 35 70 20 90 32 153 89 171 153 242 270 303 500 19 75
21 111 25 605 2 289 0 734 -5 990 l-9 465 -42 145 c-40 143 -63 190 -138 292
-45 60 -86 89 -251 177 -120 63 -141 71 -190 71 -31 1 -76 5 -101 10 -99 21
-775 43 -996 33z m982 -597 c85 -40 115 -78 138 -171 14 -59 15 -153 20 -1695
1 -157 -2 -182 -23 -248 -15 -46 -32 -79 -48 -92 -36 -28 -127 -60 -213 -74
-67 -12 -251 -12 -305 -1 -20 4 -20 13 -21 352 -4 1423 -3 1873 2 1909 l6 41
121 11 c178 15 237 9 323 -32z"/>
<path d="M16985 7700 c-79 -12 -208 -38 -229 -46 -69 -27 -230 -142 -252 -179
-9 -16 -30 -45 -46 -63 -62 -73 -129 -241 -148 -372 -23 -165 -32 -533 -20
-845 14 -372 26 -448 86 -565 35 -68 197 -240 261 -277 31 -17 58 -35 62 -40
19 -26 204 -77 354 -98 154 -22 280 -11 418 35 277 93 450 245 520 458 28 86
32 113 36 242 3 89 1 156 -6 173 l-11 27 -259 0 c-196 0 -261 -3 -269 -13 -6
-7 -18 -55 -27 -106 -23 -135 -68 -217 -140 -254 -51 -26 -222 -36 -291 -17
-60 17 -109 64 -124 119 -16 61 -31 319 -23 419 l6 83 51 -7 c68 -9 943 -9
1024 1 56 6 65 10 74 34 14 37 15 393 1 541 -13 134 -48 252 -119 395 -38 77
-117 175 -141 175 -9 0 -45 19 -82 41 -36 23 -89 52 -118 65 -70 31 -225 61
-353 69 -58 3 -123 7 -145 9 -22 2 -62 0 -90 -4z m305 -530 c34 -6 53 -18 77
-46 50 -57 83 -131 83 -184 l0 -47 -229 -7 c-214 -6 -357 -1 -365 13 -3 4 0
29 5 56 19 100 119 203 209 216 67 9 169 9 220 -1z"/>
<path d="M18445 7706 c-5 -2 -22 -7 -37 -10 -38 -9 -37 -37 6 -195 19 -69 80
-305 136 -524 55 -219 124 -469 151 -555 28 -86 64 -204 80 -262 16 -58 36
-127 44 -155 7 -27 21 -75 29 -105 9 -30 21 -82 27 -115 6 -33 21 -96 35 -140
13 -45 33 -119 43 -165 27 -119 61 -233 71 -244 13 -13 320 -20 464 -11 l116
7 0 34 c0 50 34 186 74 297 43 118 134 467 175 669 41 200 100 415 205 748 18
58 63 222 100 365 37 143 71 268 76 277 17 30 11 47 -17 53 -16 4 -37 8 -48
11 -41 10 -393 22 -472 17 l-83 -6 0 -46 c0 -25 -16 -111 -35 -191 -19 -80
-57 -244 -84 -365 -67 -305 -203 -827 -212 -818 -19 20 -128 489 -154 665 -25
161 -61 322 -121 528 -32 107 -58 196 -58 197 -1 1 -55 9 -121 18 -116 15
-370 29 -390 21z"/>
</g>
</svg>
